<svg width="52" height="60" viewBox="0 0 52 60" fill="none" xmlns="http://www.w3.org/2000/svg">
<rect x="1" y="5" width="50" height="50" rx="25" fill="#F6F6F6" stroke="#131314" stroke-opacity="0.1" stroke-width="2" stroke-linecap="round" stroke-dasharray="3 5"/>
<path d="M15.3359 25.5564C15.3359 25.1944 15.3359 25.0134 15.351 24.861C15.4967 23.3906 16.6599 22.2275 18.1302 22.0818C18.2826 22.0667 18.4734 22.0667 18.8549 22.0667C19.0019 22.0667 19.0754 22.0667 19.1378 22.0629C19.9348 22.0147 20.6326 21.5117 20.9304 20.7709C20.9537 20.7129 20.9755 20.6475 21.0191 20.5167C21.0627 20.386 21.0845 20.3206 21.1078 20.2626C21.4056 19.5218 22.1034 19.0188 22.9003 18.9706C22.9627 18.9668 23.0317 18.9668 23.1695 18.9668H28.1684C28.3062 18.9668 28.3751 18.9668 28.4376 18.9706C29.2345 19.0188 29.9323 19.5218 30.2301 20.2626C30.2534 20.3206 30.2752 20.386 30.3188 20.5167C30.3624 20.6475 30.3842 20.7129 30.4075 20.7709C30.7053 21.5117 31.4031 22.0147 32.2 22.0629C32.2624 22.0667 32.336 22.0667 32.483 22.0667C32.8645 22.0667 33.0552 22.0667 33.2077 22.0818C34.678 22.2275 35.8412 23.3906 35.9868 24.861C36.002 25.0134 36.002 25.1944 36.002 25.5564V33.6397C36.002 35.3758 36.002 36.2438 35.6641 36.9069C35.3669 37.4902 34.8927 37.9644 34.3094 38.2616C33.6463 38.5995 32.7782 38.5995 31.0421 38.5995H20.2958C18.5597 38.5995 17.6916 38.5995 17.0285 38.2616C16.4452 37.9644 15.971 37.4902 15.6738 36.9069C15.3359 36.2438 15.3359 35.3758 15.3359 33.6397V25.5564Z" stroke="#131314" stroke-opacity="0.4" stroke-width="2.0666" stroke-linecap="round" stroke-linejoin="round"/>
<path d="M25.6689 33.9497C27.9516 33.9497 29.8021 32.0992 29.8021 29.8165C29.8021 27.5338 27.9516 25.6833 25.6689 25.6833C23.3862 25.6833 21.5357 27.5338 21.5357 29.8165C21.5357 32.0992 23.3862 33.9497 25.6689 33.9497Z" stroke="#131314" stroke-opacity="0.4" stroke-width="2.0666" stroke-linecap="round" stroke-linejoin="round"/>
</svg>
