<svg width="32" height="32" viewBox="0 0 32 32" fill="none" xmlns="http://www.w3.org/2000/svg">
<path fill-rule="evenodd" clip-rule="evenodd" d="M9.00121 8.99925C10.7918 7.20869 13.268 6.09961 16.0016 6.09961C18.7351 6.09961 21.2114 7.20869 23.0019 8.99925C24.7925 10.7898 25.9016 13.266 25.9016 15.9996C25.9016 17.9326 25.2916 19.2813 24.1314 20.0406C23.0588 20.7426 21.715 20.8032 20.4778 20.6719C20.0336 20.6242 19.5896 20.5753 19.1452 20.5297C18.4884 20.4845 18.1975 20.6699 18.082 20.8093C17.9666 20.9487 17.8386 21.2691 18.0054 21.9059C18.057 22.1029 18.114 22.2837 18.1777 22.4859C18.2109 22.5912 18.2459 22.7023 18.2829 22.8244C18.7468 24.3553 17.6012 25.8996 16.0016 25.8996C13.268 25.8996 10.7918 24.7905 9.00121 23C7.21064 21.2094 6.10156 18.7332 6.10156 15.9996C6.10156 13.266 7.21064 10.7898 9.00121 8.99925ZM16.0016 7.89961C13.7646 7.89961 11.7408 8.80525 10.274 10.272C8.8072 11.7388 7.90156 13.7626 7.90156 15.9996C7.90156 18.2366 8.8072 20.2604 10.274 21.7272C11.7408 23.194 13.7646 24.0996 16.0016 24.0996C16.3933 24.0996 16.6739 23.7214 16.5603 23.3465C16.5355 23.2645 16.5071 23.1745 16.4773 23.0795C16.4065 22.8544 16.3269 22.6015 16.2642 22.3621C16.0086 21.3864 16.0852 20.3984 16.6958 19.6612C17.3063 18.924 18.2627 18.6646 19.269 18.734C19.3247 18.7378 19.7303 18.7814 20.4671 18.8604L20.671 18.8823C21.7459 18.9975 22.5898 18.8983 23.1457 18.5345C23.6319 18.2162 24.1016 17.5546 24.1016 15.9996C24.1016 13.7626 23.1959 11.7388 21.7291 10.272C20.2623 8.80525 18.2386 7.89961 16.0016 7.89961Z" fill="#131314" fill-opacity="0.8"/>
<path d="M17.0016 11.3996C17.0016 10.6264 17.6284 9.99961 18.4016 9.99961C19.1748 9.99961 19.8016 10.6264 19.8016 11.3996C19.8016 12.1728 19.1748 12.7996 18.4016 12.7996C17.6284 12.7996 17.0016 12.1728 17.0016 11.3996Z" fill="#131314" fill-opacity="0.8"/>
<path d="M19.7516 15.3996C19.7516 14.6264 20.3784 13.9996 21.1516 13.9996C21.9248 13.9996 22.5516 14.6264 22.5516 15.3996C22.5516 16.1728 21.9248 16.7996 21.1516 16.7996C20.3784 16.7996 19.7516 16.1728 19.7516 15.3996Z" fill="#131314" fill-opacity="0.8"/>
<path d="M9.45176 15.3996C9.45176 14.6264 10.0786 13.9996 10.8518 13.9996C11.625 13.9996 12.2518 14.6264 12.2518 15.3996C12.2518 16.1728 11.625 16.7996 10.8518 16.7996C10.0786 16.7996 9.45176 16.1728 9.45176 15.3996Z" fill="#131314" fill-opacity="0.8"/>
<path d="M12.0016 11.3996C12.0016 10.6264 12.6284 9.99961 13.4016 9.99961C14.1748 9.99961 14.8016 10.6264 14.8016 11.3996C14.8016 12.1728 14.1748 12.7996 13.4016 12.7996C12.6284 12.7996 12.0016 12.1728 12.0016 11.3996Z" fill="#131314" fill-opacity="0.8"/>
</svg>
