<svg width="32" height="32" viewBox="0 0 32 32" fill="none" xmlns="http://www.w3.org/2000/svg">
<path d="M22.4 12.6V21C22.4 22.9882 20.7882 24.6 18.8 24.6H13.2C11.2118 24.6 9.6 22.9882 9.6 21V12.6H9.03215C8.46211 12.6 8 12.1379 8 11.5678V10.4C8 9.18497 8.98497 8.2 10.2 8.2H11.5209C11.9399 7.47473 12.7225 7 13.6 7H18.4C19.2775 7 20.0601 7.47473 20.4791 8.2H21.8C23.015 8.2 24 9.18497 24 10.4V11.5678C24 12.1379 23.5379 12.6 22.9678 12.6H22.4ZM21.6 11H22.4V10.4C22.4 10.0686 22.1314 9.8 21.8 9.8H19.9496C19.5846 9.8 19.2658 9.55291 19.1748 9.19941C19.0848 8.84968 18.7671 8.6 18.4 8.6H13.6C13.2329 8.6 12.9152 8.84968 12.8252 9.19941C12.7342 9.55291 12.4154 9.8 12.0504 9.8H10.2C9.86863 9.8 9.6 10.0686 9.6 10.4V11H10.4H21.6ZM11.2 12.6V21C11.2 22.1046 12.0954 23 13.2 23H18.8C19.9046 23 20.8 22.1046 20.8 21V12.6H11.2Z" fill="#FF3B30"/>
</svg>
