<svg width="32" height="32" viewBox="0 0 32 32" fill="none" xmlns="http://www.w3.org/2000/svg">
<path d="M15.3255 19.1255C15.2846 19.1706 15.2466 19.2182 15.2115 19.268C15.1755 19.321 15.1468 19.3785 15.126 19.439C15.0986 19.4928 15.0794 19.5505 15.069 19.61C15.0643 19.6732 15.0643 19.7367 15.069 19.8C15.0658 19.9246 15.0918 20.0483 15.145 20.161C15.1877 20.2789 15.2557 20.386 15.3444 20.4746C15.433 20.5633 15.5401 20.6313 15.658 20.674C15.7717 20.7243 15.8947 20.7502 16.019 20.7502C16.1433 20.7502 16.2663 20.7243 16.38 20.674C16.4979 20.6313 16.605 20.5633 16.6936 20.4746C16.7823 20.386 16.8503 20.2789 16.893 20.161C16.9352 20.0455 16.9545 19.9229 16.95 19.8C16.9507 19.675 16.9268 19.551 16.8795 19.4353C16.8322 19.3195 16.7625 19.2143 16.6745 19.1255C16.5862 19.0365 16.4811 18.9658 16.3653 18.9176C16.2496 18.8693 16.1254 18.8445 16 18.8445C15.8746 18.8445 15.7504 18.8693 15.6347 18.9176C15.5189 18.9658 15.4138 19.0365 15.3255 19.1255ZM16 6.5C14.1211 6.5 12.2844 7.05717 10.7221 8.10104C9.15982 9.14491 7.94218 10.6286 7.22315 12.3645C6.50412 14.1004 6.31598 16.0105 6.68254 17.8534C7.0491 19.6962 7.95389 21.3889 9.28249 22.7175C10.6111 24.0461 12.3038 24.9509 14.1466 25.3175C15.9895 25.684 17.8996 25.4959 19.6355 24.7769C21.3714 24.0578 22.8551 22.8402 23.899 21.2779C24.9428 19.7156 25.5 17.8789 25.5 16C25.5 14.7524 25.2543 13.5171 24.7769 12.3645C24.2994 11.2119 23.5997 10.1646 22.7175 9.28248C21.8354 8.40033 20.7881 7.70056 19.6355 7.22314C18.4829 6.74572 17.2476 6.5 16 6.5ZM16 23.6C14.4969 23.6 13.0275 23.1543 11.7777 22.3192C10.5279 21.4841 9.55375 20.2971 8.97852 18.9084C8.40329 17.5197 8.25279 15.9916 8.54604 14.5173C8.83928 13.0431 9.56311 11.6889 10.626 10.626C11.6889 9.56311 13.0431 8.83928 14.5173 8.54603C15.9916 8.25278 17.5197 8.40329 18.9084 8.97852C20.2971 9.55374 21.4841 10.5279 22.3192 11.7777C23.1543 13.0275 23.6 14.4969 23.6 16C23.6 18.0156 22.7993 19.9487 21.374 21.374C19.9487 22.7993 18.0156 23.6 16 23.6ZM16 11.25C15.4994 11.2497 15.0076 11.3812 14.574 11.6314C14.1404 11.8815 13.7803 12.2415 13.53 12.675C13.4613 12.7831 13.4151 12.904 13.3943 13.0305C13.3735 13.1569 13.3785 13.2862 13.409 13.4107C13.4395 13.5351 13.4948 13.6521 13.5717 13.7546C13.6486 13.8571 13.7454 13.943 13.8563 14.0071C13.9672 14.0712 14.09 14.1123 14.2172 14.1277C14.3444 14.1432 14.4734 14.1327 14.5964 14.097C14.7195 14.0613 14.834 14.0011 14.9332 13.92C15.0324 13.8389 15.1141 13.7385 15.1735 13.625C15.2572 13.48 15.3777 13.3597 15.5229 13.2763C15.668 13.1929 15.8326 13.1493 16 13.15C16.252 13.15 16.4936 13.2501 16.6718 13.4282C16.8499 13.6064 16.95 13.848 16.95 14.1C16.95 14.352 16.8499 14.5936 16.6718 14.7717C16.4936 14.9499 16.252 15.05 16 15.05C15.748 15.05 15.5064 15.1501 15.3283 15.3282C15.1501 15.5064 15.05 15.748 15.05 16V16.95C15.05 17.202 15.1501 17.4436 15.3283 17.6217C15.5064 17.7999 15.748 17.9 16 17.9C16.252 17.9 16.4936 17.7999 16.6718 17.6217C16.8499 17.4436 16.95 17.202 16.95 16.95V16.779C17.5783 16.551 18.1065 16.1095 18.4422 15.5315C18.778 14.9536 18.8999 14.276 18.7867 13.6173C18.6735 12.9586 18.3324 12.3606 17.823 11.9278C17.3136 11.4951 16.6684 11.2552 16 11.25Z" fill="#131314" fill-opacity="0.4"/>
</svg>
