<svg width="117" height="36" viewBox="0 0 117 36" fill="none" xmlns="http://www.w3.org/2000/svg">
<path d="M113.316 27.1487C111.647 27.1487 110.296 25.8376 110.296 24.2087C110.296 22.5797 111.647 21.2288 113.316 21.2288C114.945 21.2288 116.296 22.5797 116.296 24.2087C116.296 25.8376 114.945 27.1487 113.316 27.1487Z" fill="#131314"/>
<path d="M30.1961 26.6642V7.27558H34.6459V9.93755H34.7254C36.3146 8.03047 38.6587 6.99747 41.2015 6.99747C45.4527 6.99747 48.3133 9.42105 48.3133 15.2615V26.6642H43.8635V16.4137C43.8635 12.3214 42.314 11.0103 39.652 11.0103C36.6325 11.0103 34.6459 13.116 34.6459 16.9302V26.6642H30.1961Z" fill="#131314"/>
<path d="M76.2892 27.9511C70.9255 27.9511 66.9127 24.0178 66.9127 18.0184C66.9127 12.178 70.9255 7.96651 76.2495 7.96651C78.7128 7.96651 80.8583 8.88032 82.2488 10.6285L82.3283 10.5887V8.24463H86.7782V27.6333H82.5269V25.0905L82.4475 25.0508C81.0569 26.9181 78.9909 27.9511 76.2892 27.9511ZM77.0044 23.8986C80.0239 23.8986 82.5269 21.5545 82.5269 18.0582C82.5269 14.6016 80.1828 11.9793 77.0044 11.9793C73.9054 11.9793 71.442 14.3235 71.442 18.0582C71.442 21.475 73.7067 23.8986 77.0044 23.8986Z" fill="#131314"/>
<path d="M88.2606 35.5V8.24463H92.7105V10.549H92.7899C94.2202 8.88032 96.3657 7.96651 98.9085 7.96651C104.272 7.96651 108.285 12.178 108.285 18.0184C108.285 24.0178 104.272 27.9511 98.8687 27.9511C96.2465 27.9511 94.2202 26.9976 92.7899 25.2494L92.7105 25.2892V35.5H88.2606ZM98.1933 23.8986C101.451 23.8986 103.756 21.475 103.756 18.0582C103.756 14.3235 101.253 11.9793 98.1536 11.9793C94.8162 11.9793 92.5118 14.6016 92.5118 18.0582C92.5118 21.5545 95.0148 23.8986 98.1933 23.8986Z" fill="#131314"/>
<path d="M54.5761 7.76784H50.2154V27.1487H54.5761V7.76784Z" fill="#131314"/>
<path d="M69.5963 0.984523H50.2154V5.34523H59.9058V27.1487H64.7511V5.34523H69.5963V0.984523Z" fill="#131314"/>
<path d="M10 19.6386V0.5H15.028V18.5841C14.9284 20.8757 16.7594 22.788 19.0532 22.788C21.2783 22.788 23.0821 20.9842 23.0821 18.7591V0.5H28.8964V19.6386C28.8964 24.8567 24.2713 27.1487 19.0532 27.1487C13.8351 27.1487 10 24.8567 10 19.6386Z" fill="#131314"/>
</svg>
