<svg width="24" height="22" viewBox="0 0 24 22" fill="none" xmlns="http://www.w3.org/2000/svg">
<path d="M2 7.77318C2 7.4112 2 7.23021 2.0151 7.07776C2.16078 5.60743 3.32394 4.44428 4.79426 4.2986C4.94671 4.2835 5.13747 4.2835 5.51899 4.2835C5.666 4.2835 5.7395 4.2835 5.80191 4.27972C6.59882 4.23145 7.29665 3.72849 7.59444 2.98774C7.61776 2.92973 7.63956 2.86433 7.68315 2.73355C7.72675 2.60276 7.74855 2.53736 7.77187 2.47935C8.06966 1.7386 8.76749 1.23564 9.5644 1.18737C9.6268 1.18359 9.69573 1.18359 9.8336 1.18359H14.8324C14.9703 1.18359 15.0392 1.18359 15.1016 1.18737C15.8985 1.23564 16.5964 1.7386 16.8941 2.47935C16.9175 2.53736 16.9393 2.60276 16.9829 2.73355C17.0265 2.86433 17.0483 2.92973 17.0716 2.98774C17.3694 3.72849 18.0672 4.23145 18.8641 4.27972C18.9265 4.2835 19 4.2835 19.147 4.2835C19.5285 4.2835 19.7193 4.2835 19.8718 4.2986C21.3421 4.44428 22.5052 5.60743 22.6509 7.07776C22.666 7.23021 22.666 7.4112 22.666 7.77318V15.8565C22.666 17.5926 22.666 18.4606 22.3281 19.1237C22.0309 19.707 21.5567 20.1812 20.9734 20.4784C20.3103 20.8163 19.4423 20.8163 17.7062 20.8163H6.95984C5.22374 20.8163 4.35568 20.8163 3.69258 20.4784C3.10929 20.1812 2.63507 19.707 2.33787 19.1237C2 18.4606 2 17.5926 2 15.8565V7.77318Z" stroke="#131314" stroke-opacity="0.8" stroke-width="2.0666" stroke-linecap="round" stroke-linejoin="round"/>
<path d="M12.333 16.1665C14.6157 16.1665 16.4662 14.316 16.4662 12.0333C16.4662 9.75055 14.6157 7.90005 12.333 7.90005C10.0503 7.90005 8.1998 9.75055 8.1998 12.0333C8.1998 14.316 10.0503 16.1665 12.333 16.1665Z" stroke="#131314" stroke-opacity="0.8" stroke-width="2.0666" stroke-linecap="round" stroke-linejoin="round"/>
</svg>
