<svg width="42" height="42" viewBox="0 0 42 42" fill="none" xmlns="http://www.w3.org/2000/svg">
<g clip-path="url(#clip0_4_188775)">
<path d="M31.0521 9.59961C35.771 9.59961 39.1565 13.4524 39.1565 18.4511V20.331C39.1565 20.5998 39.3836 20.956 40.0033 21.5954C40.0827 21.6774 40.1576 21.7534 40.321 21.9189C41.5917 23.2077 42.0946 23.9502 42.0946 25.1448C42.0946 25.6672 42.0336 26.0745 41.78 26.5625C41.2438 27.5938 40.1072 28.1685 38.408 28.1685L36.1612 28.1697C35.4218 30.9109 33.6574 32.3996 31.0473 32.3996C28.4093 32.3996 26.6353 30.879 25.9101 28.0816L25.9326 28.1685H23.6866C21.9378 28.1685 20.789 27.5782 20.2758 26.5107C20.0514 26.0438 20 25.6649 20 25.1448C20 23.9502 20.5029 23.2077 21.7736 21.9189C21.937 21.7534 22.0119 21.6774 22.0913 21.5954C22.711 20.956 22.9381 20.5998 22.9381 20.331V18.4511C22.9381 13.4544 26.3319 9.59961 31.0521 9.59961ZM33.9454 28.1707H28.1492C28.685 29.6358 29.6085 30.2842 31.0473 30.2842C32.4861 30.2842 33.4096 29.6358 33.9454 28.1707ZM31.0521 11.715C27.5644 11.715 25.0536 14.567 25.0536 18.4511V20.331C25.0536 21.333 24.5959 22.0509 23.6104 23.0677C23.5243 23.1565 23.443 23.2391 23.28 23.4041C22.4022 24.2944 22.1154 24.7178 22.1154 25.1448C22.1154 25.3706 22.1314 25.488 22.1823 25.5941C22.3084 25.8564 22.6912 26.053 23.6866 26.053H38.408C39.3718 26.053 39.7635 25.855 39.903 25.5867C39.9611 25.4749 39.9792 25.3544 39.9792 25.1448C39.9792 24.7178 39.6924 24.2944 38.8146 23.4041C38.6516 23.2391 38.5703 23.1565 38.4842 23.0677C37.4987 22.0509 37.041 21.333 37.041 20.331V18.4511C37.041 14.5643 34.5375 11.715 31.0521 11.715Z" fill="#131314" fill-opacity="0.8"/>
</g>
<defs>
<clipPath id="clip0_4_188775">
<rect width="42" height="42" rx="21" fill="white"/>
</clipPath>
</defs>
</svg>
