<svg width="32" height="32" viewBox="0 0 32 32" fill="none" xmlns="http://www.w3.org/2000/svg">
<path d="M7.08213 17.9443C6.55342 16.9938 6.28906 16.5186 6.28906 15.9998C6.28906 15.4809 6.55342 15.0057 7.08213 14.0553L8.43138 11.6298L9.8573 9.24853C10.416 8.31543 10.6954 7.84888 11.1448 7.58946C11.5941 7.33004 12.1378 7.32137 13.2253 7.30403L16.0004 7.25977L18.7756 7.30403C19.8631 7.32137 20.4068 7.33004 20.8561 7.58946C21.3055 7.84888 21.5848 8.31543 22.1436 9.24853L23.5695 11.6298L24.9188 14.0553C25.4475 15.0057 25.7118 15.4809 25.7118 15.9998C25.7118 16.5186 25.4475 16.9938 24.9188 17.9443L23.5695 20.3698L22.1436 22.751C21.5848 23.6841 21.3055 24.1506 20.8561 24.4101C20.4068 24.6695 19.8631 24.6782 18.7756 24.6955L16.0004 24.7398L13.2253 24.6955C12.1378 24.6782 11.5941 24.6695 11.1448 24.4101C10.6954 24.1506 10.416 23.6841 9.8573 22.751L8.43138 20.3698L7.08213 17.9443Z" stroke="#131314" stroke-opacity="0.8" stroke-width="2"/>
<path d="M19.0004 15.9998C19.0004 17.6566 17.6573 18.9998 16.0004 18.9998C14.3436 18.9998 13.0004 17.6566 13.0004 15.9998C13.0004 14.3429 14.3436 12.9998 16.0004 12.9998C17.6573 12.9998 19.0004 14.3429 19.0004 15.9998Z" stroke="#131314" stroke-opacity="0.8" stroke-width="2"/>
</svg>
