<svg width="19" height="5" viewBox="0 0 19 5" fill="none" xmlns="http://www.w3.org/2000/svg">
<path d="M4.65385 2.50023C4.65385 1.35792 3.71923 0.423303 2.57692 0.423303C1.43462 0.423303 0.5 1.35792 0.5 2.50023C0.5 3.64253 1.43462 4.57715 2.57692 4.57715C3.71923 4.57715 4.65385 3.64253 4.65385 2.50023ZM7.42308 2.50023C7.42308 3.64253 8.35769 4.57715 9.5 4.57715C10.6423 4.57715 11.5769 3.64253 11.5769 2.50023C11.5769 1.35792 10.6423 0.423303 9.5 0.423303C8.35769 0.423303 7.42308 1.35792 7.42308 2.50023ZM14.3462 2.50023C14.3462 3.64253 15.2808 4.57715 16.4231 4.57715C17.5654 4.57715 18.5 3.64253 18.5 2.50023C18.5 1.35792 17.5654 0.423303 16.4231 0.423303C15.2808 0.423303 14.3462 1.35792 14.3462 2.50023Z" fill="#131314"/>
</svg>
