<svg width="32" height="32" viewBox="0 0 32 32" fill="none" xmlns="http://www.w3.org/2000/svg">
<path fill-rule="evenodd" clip-rule="evenodd" d="M19.3333 15.6667C19.3333 17.5076 17.841 19 16 19C14.1591 19 12.6667 17.5076 12.6667 15.6667C12.6667 13.8257 14.1591 12.3333 16 12.3333C17.841 12.3333 19.3333 13.8257 19.3333 15.6667ZM17.6667 15.6667C17.6667 16.5871 16.9205 17.3333 16 17.3333C15.0795 17.3333 14.3333 16.5871 14.3333 15.6667C14.3333 14.7462 15.0795 14 16 14C16.9205 14 17.6667 14.7462 17.6667 15.6667Z" fill="#131314" fill-opacity="0.8"/>
<path fill-rule="evenodd" clip-rule="evenodd" d="M26 15.6667C26 19.5556 20.4444 22.3333 16 22.3333C11.5556 22.3333 6 19.5556 6 15.6667C6 11.7778 11.5556 9 16 9C20.4444 9 26 11.7778 26 15.6667ZM24.3333 15.6667C24.3333 16.7585 23.534 17.982 21.8017 19.0337C20.1171 20.0565 17.9161 20.6667 16 20.6667C14.0839 20.6667 11.8829 20.0565 10.1983 19.0337C8.46604 17.982 7.66667 16.7585 7.66667 15.6667C7.66667 14.5748 8.46604 13.3514 10.1983 12.2996C11.8829 11.2768 14.0839 10.6667 16 10.6667C17.9161 10.6667 20.1171 11.2768 21.8017 12.2996C23.534 13.3514 24.3333 14.5748 24.3333 15.6667Z" fill="#131314" fill-opacity="0.8"/>
</svg>
