<svg width="56" height="55" viewBox="0 0 56 55" fill="none" xmlns="http://www.w3.org/2000/svg">
<path d="M0 10C0 4.47715 4.47715 0 10 0H45C50.5228 0 55 4.47715 55 10V45C55 50.5228 50.5228 55 45 55H10C4.47715 55 0 50.5228 0 45V10Z" fill="#013DF6" fill-opacity="0.09" stroke="#013DF6" stroke-width="2" stroke-linecap="round" stroke-dasharray="3 5"/>
<path d="M17.1416 23.0419C17.1416 22.6919 17.1416 22.5169 17.1562 22.3695C17.2971 20.9477 18.4218 19.823 19.8436 19.6821C19.991 19.6675 20.1755 19.6675 20.5444 19.6675C20.6866 19.6675 20.7576 19.6675 20.818 19.6638C21.5886 19.6172 22.2634 19.1308 22.5513 18.4145C22.5739 18.3584 22.595 18.2952 22.6371 18.1687C22.6793 18.0422 22.7004 17.979 22.7229 17.9229C23.0109 17.2066 23.6857 16.7202 24.4562 16.6736C24.5166 16.6699 24.5832 16.6699 24.7166 16.6699H29.5503C29.6836 16.6699 29.7503 16.6699 29.8106 16.6736C30.5812 16.7202 31.256 17.2066 31.544 17.9229C31.5665 17.979 31.5876 18.0422 31.6298 18.1687C31.6719 18.2952 31.693 18.3584 31.7156 18.4145C32.0035 19.1308 32.6783 19.6172 33.4489 19.6638C33.5093 19.6675 33.5803 19.6675 33.7225 19.6675C34.0914 19.6675 34.2759 19.6675 34.4233 19.6821C35.8451 19.823 36.9698 20.9477 37.1107 22.3695C37.1253 22.5169 37.1253 22.6919 37.1253 23.0419V30.8583C37.1253 32.5371 37.1253 33.3765 36.7986 34.0177C36.5112 34.5818 36.0526 35.0403 35.4886 35.3277C34.8474 35.6544 34.008 35.6544 32.3292 35.6544H21.9377C20.2589 35.6544 19.4195 35.6544 18.7783 35.3277C18.2143 35.0403 17.7557 34.5818 17.4683 34.0177C17.1416 33.3765 17.1416 32.5371 17.1416 30.8583V23.0419Z" stroke="#013DF6" stroke-width="1.8167" stroke-linecap="round" stroke-linejoin="round"/>
<path d="M27.1334 31.1581C29.3408 31.1581 31.1302 29.3687 31.1302 27.1614C31.1302 24.954 29.3408 23.1646 27.1334 23.1646C24.9261 23.1646 23.1367 24.954 23.1367 27.1614C23.1367 29.3687 24.9261 31.1581 27.1334 31.1581Z" stroke="#013DF6" stroke-width="1.8167" stroke-linecap="round" stroke-linejoin="round"/>
</svg>
