<svg width="52" height="58" viewBox="0 0 52 58" fill="none" xmlns="http://www.w3.org/2000/svg">
<rect x="1" y="1" width="50" height="50" rx="25" fill="#F6F6F6" stroke="#131314" stroke-opacity="0.1" stroke-width="2" stroke-linecap="round"/>
<circle cx="12.5" cy="46.5" r="11.5" fill="#CECECE"/>
<path d="M12.5517 41.3447C12.8583 41.3447 13.1069 41.5933 13.1069 41.8999L13.1069 46.3413L17.5483 46.3413C17.8549 46.3413 18.1034 46.5899 18.1034 46.8965C18.1034 47.203 17.8549 47.4516 17.5483 47.4516L13.1069 47.451L13.1069 51.8931C13.1069 52.1997 12.8583 52.4482 12.5517 52.4482C12.2451 52.4482 11.9966 52.1997 11.9966 51.8931L11.9966 47.451L7.55514 47.4516C7.24855 47.4516 7 47.203 7 46.8965C7 46.5899 7.24855 46.3413 7.55514 46.3413L11.9966 46.3413L11.9966 41.8999C11.9966 41.5933 12.2451 41.3447 12.5517 41.3447Z" fill="white"/>
</svg>
