<svg width="29" height="29" viewBox="0 0 29 29" fill="none" xmlns="http://www.w3.org/2000/svg">
<path fill-rule="evenodd" clip-rule="evenodd" d="M11.7199 23.2089C12.0825 23.8595 12.4458 24.4104 12.7718 24.8585C9.33328 24.289 6.45882 22.0489 5.01045 19H10.0523C10.4785 20.6851 11.0985 22.0941 11.7199 23.2089ZM11.6041 19C11.9882 20.3816 12.5097 21.545 13.0301 22.4786C13.5369 23.3879 14.0422 24.0783 14.417 24.5375C14.4455 24.5724 14.4731 24.6059 14.5 24.6381C14.5269 24.6059 14.5545 24.5724 14.583 24.5375C14.9578 24.0783 15.4631 23.3879 15.9699 22.4786C16.4903 21.545 17.0118 20.3816 17.3959 19H11.6041ZM17.7374 17.5H11.2626C11.0977 16.5771 11 15.5763 11 14.5C11 13.4237 11.0977 12.4229 11.2626 11.5H17.7374C17.9023 12.4229 18 13.4237 18 14.5C18 15.5763 17.9023 16.5771 17.7374 17.5ZM18.9477 19C18.5215 20.6851 17.9015 22.0941 17.2801 23.2089C16.9175 23.8595 16.5542 24.4104 16.2282 24.8585C19.6667 24.289 22.5412 22.0489 23.9896 19H18.9477ZM24.5652 17.5H19.2592C19.4114 16.5687 19.5 15.5679 19.5 14.5C19.5 13.4321 19.4114 12.4313 19.2592 11.5H24.5652C24.8481 12.4506 25 13.4575 25 14.5C25 15.5425 24.8481 16.5494 24.5652 17.5ZM9.74079 17.5H4.43482C4.15192 16.5494 4 15.5425 4 14.5C4 13.4575 4.15192 12.4506 4.43482 11.5H9.74079C9.58858 12.4313 9.5 13.4321 9.5 14.5C9.5 15.5679 9.58858 16.5687 9.74079 17.5ZM10.0523 10H5.01045C6.45882 6.9511 9.33328 4.71095 12.7718 4.14154C12.4458 4.58956 12.0825 5.14047 11.7199 5.79111C11.0985 6.90593 10.4785 8.31487 10.0523 10ZM13.0301 6.52139C12.5097 7.45502 11.9882 8.61839 11.6041 10H17.3959C17.0118 8.61839 16.4903 7.45502 15.9699 6.52139C15.4631 5.61208 14.9578 4.92175 14.583 4.46245C14.5545 4.4276 14.5269 4.39409 14.5 4.36193C14.4731 4.39409 14.4455 4.4276 14.417 4.46245C14.0422 4.92175 13.5369 5.61208 13.0301 6.52139ZM18.9477 10H23.9896C22.5412 6.9511 19.6667 4.71095 16.2282 4.14154C16.5542 4.58956 16.9175 5.14047 17.2801 5.79111C17.9015 6.90593 18.5215 8.31487 18.9477 10ZM14.5 26.5C21.1274 26.5 26.5 21.1274 26.5 14.5C26.5 7.87258 21.1274 2.5 14.5 2.5C7.87258 2.5 2.5 7.87258 2.5 14.5C2.5 21.1274 7.87258 26.5 14.5 26.5Z" fill="#131314"/>
</svg>
