<svg width="50" height="50" viewBox="0 0 50 50" fill="none" xmlns="http://www.w3.org/2000/svg">
<path d="M0 15C0 6.71573 6.71573 0 15 0H35C43.2843 0 50 6.71573 50 15V35C50 43.2843 43.2843 50 35 50H15C6.71573 50 0 43.2843 0 35V15Z" fill="#131314" fill-opacity="0.04"/>
<path d="M25 30C24.0994 30 23.2632 29.7778 22.4912 29.3333C21.731 28.8772 21.1228 28.269 20.6667 27.5088C20.2222 26.7485 20 25.9123 20 25C20 24.0877 20.2222 23.2515 20.6667 22.4912C21.1228 21.7193 21.731 21.1111 22.4912 20.6667C23.2515 20.2222 24.0877 20 25 20C25.9123 20 26.7485 20.2222 27.5088 20.6667C28.2807 21.1111 28.8889 21.7193 29.3333 22.4912C29.7778 23.2515 30 24.0877 30 25C30 25.9006 29.7778 26.7368 29.3333 27.5088C28.8889 28.269 28.2807 28.8772 27.5088 29.3333C26.7485 29.7778 25.9123 30 25 30ZM25 33C26.4971 33 27.8538 32.6491 29.0702 31.9474C30.2982 31.2456 31.2573 30.2866 31.9474 29.0702C32.6491 27.8421 33 26.4854 33 25C33 23.5029 32.6491 22.1462 31.9474 20.9298C31.2573 19.7018 30.2982 18.7427 29.0702 18.0526C27.8538 17.3509 26.4971 17 25 17C23.5146 17 22.1579 17.3509 20.9298 18.0526C19.7135 18.7427 18.7544 19.7018 18.0526 20.9298C17.3509 22.1462 17 23.5029 17 25C17 26.4854 17.3509 27.8421 18.0526 29.0702C18.7544 30.2866 19.7135 31.2456 20.9298 31.9474C22.1579 32.6491 23.5146 33 25 33ZM25 35C23.1988 35 21.5263 34.5556 19.9825 33.6667C18.4503 32.7661 17.2339 31.5497 16.3333 30.0175C15.4444 28.4737 15 26.8012 15 25C15 23.1871 15.4444 21.5146 16.3333 19.9825C17.2339 18.4503 18.4503 17.2398 19.9825 16.3509C21.5263 15.4503 23.1988 15 25 15C26.8129 15 28.4854 15.4503 30.0175 16.3509C31.5497 17.2398 32.7602 18.4561 33.6491 20C34.5497 21.5322 35 23.1988 35 25C35 26.8012 34.5497 28.4737 33.6491 30.0175C32.7602 31.5497 31.5439 32.7661 30 33.6667C28.4678 34.5556 26.8012 35 25 35Z" fill="#131314"/>
</svg>
