<svg width="62" height="58" viewBox="0 0 62 58" fill="none" xmlns="http://www.w3.org/2000/svg">
<path d="M3.66406 20.4641C3.66406 19.5065 3.66406 19.0278 3.70402 18.6245C4.08937 14.7352 7.16615 11.6584 11.0555 11.2731C11.4587 11.2331 11.9633 11.2331 12.9725 11.2331C13.3614 11.2331 13.5558 11.2331 13.7209 11.2231C15.8289 11.0954 17.6748 9.76499 18.4625 7.80554C18.5242 7.65209 18.5819 7.47911 18.6972 7.13315C18.8125 6.7872 18.8702 6.61422 18.9319 6.46077C19.7196 4.50132 21.5655 3.17087 23.6735 3.0432C23.8386 3.0332 24.0209 3.0332 24.3856 3.0332H37.6085C37.9732 3.0332 38.1556 3.0332 38.3206 3.0432C40.4286 3.17087 42.2745 4.50132 43.0623 6.46077C43.1239 6.61422 43.1816 6.7872 43.2969 7.13315C43.4122 7.47911 43.4699 7.65209 43.5316 7.80554C44.3193 9.76499 46.1652 11.0954 48.2732 11.2231C48.4383 11.2331 48.6327 11.2331 49.0216 11.2331C50.0308 11.2331 50.5354 11.2331 50.9387 11.2731C54.828 11.6584 57.9048 14.7352 58.2901 18.6245C58.3301 19.0278 58.3301 19.5065 58.3301 20.4641V41.8461C58.3301 46.4385 58.3301 48.7346 57.4363 50.4887C56.6502 52.0316 55.3958 53.286 53.8529 54.0722C52.0988 54.9659 49.8026 54.9659 45.2102 54.9659H16.7839C12.1915 54.9659 9.89534 54.9659 8.14129 54.0722C6.59838 53.286 5.34395 52.0316 4.5578 50.4887C3.66406 48.7346 3.66406 46.4385 3.66406 41.8461V20.4641Z" stroke="#131314" stroke-opacity="0.4" stroke-width="5.4666" stroke-linecap="round" stroke-linejoin="round"/>
<path d="M30.9971 42.6661C37.0353 42.6661 41.9303 37.7711 41.9303 31.7329C41.9303 25.6946 37.0353 20.7997 30.9971 20.7997C24.9588 20.7997 20.0639 25.6946 20.0639 31.7329C20.0639 37.7711 24.9588 42.6661 30.9971 42.6661Z" stroke="#131314" stroke-opacity="0.4" stroke-width="5.4666" stroke-linecap="round" stroke-linejoin="round"/>
</svg>
