<svg width="50" height="50" viewBox="0 0 50 50" fill="none" xmlns="http://www.w3.org/2000/svg">
<path d="M0 15C0 6.71573 6.71573 0 15 0H35C43.2843 0 50 6.71573 50 15V35C50 43.2843 43.2843 50 35 50H15C6.71573 50 0 43.2843 0 35V15Z" fill="#131314" fill-opacity="0.04"/>
<path d="M16 25H16.01M20.5 25H20.51M29.5 25H29.51M25 25H25.01M34 25H34.01M34 34V33.2C34 32.0799 34 31.5198 33.782 31.092C33.5903 30.7157 33.2843 30.4097 32.908 30.218C32.4802 30 31.9201 30 30.8 30H19.2C18.0799 30 17.5198 30 17.092 30.218C16.7157 30.4097 16.4097 30.7157 16.218 31.092C16 31.5198 16 32.0799 16 33.2V34M34 16V16.8C34 17.9201 34 18.4802 33.782 18.908C33.5903 19.2843 33.2843 19.5903 32.908 19.782C32.4802 20 31.9201 20 30.8 20H19.2C18.0799 20 17.5198 20 17.092 19.782C16.7157 19.5903 16.4097 19.2843 16.218 18.908C16 18.4802 16 17.9201 16 16.8V16" stroke="#131314" stroke-width="2" stroke-linecap="round" stroke-linejoin="round"/>
</svg>
