<svg width="50" height="50" viewBox="0 0 50 50" fill="none" xmlns="http://www.w3.org/2000/svg">
<path d="M0 15C0 6.71573 6.71573 0 15 0H35C43.2843 0 50 6.71573 50 15V35C50 43.2843 43.2843 50 35 50H15C6.71573 50 0 43.2843 0 35V15Z" fill="#131314" fill-opacity="0.04"/>
<path fill-rule="evenodd" clip-rule="evenodd" d="M13 24.6C13 21.2397 13 19.5595 13.654 18.2761C14.2292 17.1471 15.1471 16.2292 16.2761 15.654C17.5595 15 19.2397 15 22.6 15H27.4C30.7603 15 32.4405 15 33.7239 15.654C34.8529 16.2292 35.7708 17.1471 36.346 18.2761C37 19.5595 37 21.2397 37 24.6V25.4C37 28.7603 37 30.4405 36.346 31.7239C35.7708 32.8529 34.8529 33.7708 33.7239 34.346C32.4405 35 30.7603 35 27.4 35H22.6C19.2397 35 17.5595 35 16.2761 34.346C15.1471 33.7708 14.2292 32.8529 13.654 31.7239C13 30.4405 13 28.7603 13 25.4V24.6ZM22.6 17H27.4C29.1132 17 30.2777 17.0016 31.1779 17.0751C32.0548 17.1467 32.5032 17.2766 32.816 17.436C32.8892 17.4733 32.961 17.5127 33.0315 17.5543L27.687 22.8988C27.0813 23.5045 26.669 23.9157 26.3248 24.2079C25.9894 24.4926 25.785 24.6052 25.618 24.6595C25.2163 24.79 24.7837 24.79 24.382 24.6595C24.215 24.6052 24.0106 24.4926 23.6752 24.2079C23.331 23.9157 22.9187 23.5045 22.313 22.8988L16.9685 17.5543C17.039 17.5127 17.1108 17.4733 17.184 17.436C17.4968 17.2766 17.9452 17.1467 18.8221 17.0751C19.7223 17.0016 20.8868 17 22.6 17ZM15.5543 18.9685C15.5127 19.039 15.4733 19.1108 15.436 19.184C15.2766 19.4968 15.1467 19.9452 15.0751 20.8221C15.0016 21.7223 15 22.8868 15 24.6V25.4C15 27.1132 15.0016 28.2777 15.0751 29.1779C15.1467 30.0548 15.2766 30.5032 15.436 30.816C15.8195 31.5686 16.4314 32.1805 17.184 32.564C17.4968 32.7234 17.9452 32.8533 18.8221 32.9249C19.7223 32.9984 20.8868 33 22.6 33H27.4C29.1132 33 30.2777 32.9984 31.1779 32.9249C32.0548 32.8533 32.5032 32.7234 32.816 32.564C33.5686 32.1805 34.1805 31.5686 34.564 30.816C34.7234 30.5032 34.8533 30.0548 34.9249 29.1779C34.9984 28.2777 35 27.1132 35 25.4V24.6C35 22.8868 34.9984 21.7223 34.9249 20.8221C34.8533 19.9452 34.7234 19.4968 34.564 19.184C34.5267 19.1108 34.4873 19.039 34.4457 18.9685L29.072 24.3422C28.5029 24.9114 28.033 25.3812 27.6191 25.7326C27.1892 26.0976 26.7541 26.3933 26.2361 26.5616C25.4327 26.8226 24.5673 26.8226 23.7639 26.5616C23.2459 26.3933 22.8108 26.0976 22.3809 25.7326C21.9669 25.3812 21.4972 24.9114 20.928 24.3422L15.5543 18.9685Z" fill="#131314"/>
</svg>
