<svg width="56" height="51" viewBox="0 0 56 51" fill="none" xmlns="http://www.w3.org/2000/svg">
<path d="M40.1479 11.4748C41.5487 9.90974 43.5843 8.9248 45.85 8.9248C50.075 8.9248 53.5 12.3498 53.5 16.5748C53.5 20.7998 50.075 24.2248 45.85 24.2248H30.55M14.6479 5.0998C16.0487 3.53474 18.0843 2.5498 20.35 2.5498C24.575 2.5498 28 5.97482 28 10.1998C28 14.4248 24.575 17.8498 20.35 17.8498H2.5M24.8479 45.8998C26.2487 47.4648 28.2843 48.4498 30.55 48.4498C34.7749 48.4498 38.2 45.0247 38.2 40.7998C38.2 36.5748 34.7749 33.1498 30.55 33.1498H2.5" stroke="#131314" stroke-opacity="0.4" stroke-width="5.09999" stroke-linecap="round" stroke-linejoin="round"/>
</svg>
