<svg width="50" height="50" viewBox="0 0 50 50" fill="none" xmlns="http://www.w3.org/2000/svg">
<path d="M0 15C0 6.71573 6.71573 0 15 0H35C43.2843 0 50 6.71573 50 15V35C50 43.2843 43.2843 50 35 50H15C6.71573 50 0 43.2843 0 35V15Z" fill="#131314" fill-opacity="0.04"/>
<path d="M30 29C30 29.8284 29.3284 30.5 28.5 30.5C27.6715 30.5 27 29.8284 27 29C27 28.1715 27.6715 27.5 28.5 27.5C29.3284 27.5 30 28.1715 30 29Z" fill="#131314"/>
<path fill-rule="evenodd" clip-rule="evenodd" d="M21 15C21.497 15 21.9 15.4029 21.9 15.9V16.5004C22.0797 16.5 22.2668 16.5 22.4616 16.5H27.5384C27.7332 16.5 27.9203 16.5 28.1 16.5004V15.9C28.1 15.4029 28.5029 15 29 15C29.497 15 29.9 15.4029 29.9 15.9V16.553C30.5278 16.6062 31.0828 16.7173 31.5976 16.9796C32.4255 17.4014 33.0986 18.0745 33.5204 18.9024C33.7866 19.4248 33.8971 19.9886 33.9493 20.6279C34 21.2483 34 22.0141 34 22.9616V28.0384C34 28.9859 34 29.7517 33.9493 30.3721C33.8971 31.0114 33.7866 31.5752 33.5204 32.0976C33.0986 32.9255 32.4255 33.5986 31.5976 34.0204C31.0752 34.2866 30.5114 34.3971 29.8721 34.4493C29.2517 34.5 28.4859 34.5 27.5384 34.5H22.4616C21.5141 34.5 20.7483 34.5 20.1279 34.4493C19.4886 34.3971 18.9248 34.2866 18.4024 34.0204C17.5745 33.5986 16.9014 32.9255 16.4796 32.0976C16.2134 31.5752 16.1029 31.0114 16.0507 30.3721C16 29.7517 16 28.9859 16 28.0384V22.9616C16 22.0141 16 21.2483 16.0507 20.6279C16.1029 19.9886 16.2134 19.4248 16.4796 18.9024C16.9014 18.0745 17.5745 17.4014 18.4024 16.9796C18.9172 16.7173 19.4722 16.6062 20.1 16.553V15.9C20.1 15.4029 20.5029 15 21 15ZM20.1 18.3612C19.6779 18.4069 19.4197 18.4814 19.2196 18.5834C18.7304 18.8327 18.3327 19.2304 18.0834 19.7196C17.9681 19.9459 17.8878 20.2465 17.8447 20.7745C17.8085 21.2178 17.8016 21.7652 17.8003 22.5H32.1997C32.1984 21.7652 32.1915 21.2178 32.1553 20.7745C32.1122 20.2465 32.0319 19.9459 31.9166 19.7196C31.6673 19.2304 31.2696 18.8327 30.7804 18.5834C30.5803 18.4814 30.3221 18.4069 29.9 18.3612V19.1C29.9 19.5971 29.497 20 29 20C28.5029 20 28.1 19.5971 28.1 19.1V18.3005C27.9129 18.3 27.7134 18.3 27.5 18.3H22.5C22.2865 18.3 22.087 18.3 21.9 18.3005V19.1C21.9 19.5971 21.497 20 21 20C20.5029 20 20.1 19.5971 20.1 19.1V18.3612ZM32.2 24.3H17.8V28C17.8 28.9949 17.8007 29.687 17.8447 30.2255C17.8878 30.7535 17.9681 31.0541 18.0834 31.2804C18.3327 31.7696 18.7304 32.1673 19.2196 32.4166C19.446 32.5319 19.7465 32.6122 20.2745 32.6553C20.813 32.6993 21.5051 32.7 22.5 32.7H27.5C28.4949 32.7 29.187 32.6993 29.7255 32.6553C30.2535 32.6122 30.5541 32.5319 30.7804 32.4166C31.2696 32.1673 31.6673 31.7696 31.9166 31.2804C32.0319 31.0541 32.1122 30.7535 32.1553 30.2255C32.1993 29.687 32.2 28.9949 32.2 28V24.3Z" fill="#131314"/>
</svg>
