<svg width="50" height="50" viewBox="0 0 50 50" fill="none" xmlns="http://www.w3.org/2000/svg">
<path d="M0 15C0 6.71573 6.71573 0 15 0H35C43.2843 0 50 6.71573 50 15V35C50 43.2843 43.2843 50 35 50H15C6.71573 50 0 43.2843 0 35V15Z" fill="#131314" fill-opacity="0.04"/>
<path d="M17.997 27.675L16.6065 20.775C16.3023 19.2654 17.2734 17.7937 18.7812 17.4806L23.2577 16.5509C24.7121 16.2489 26.5953 15.8934 28.0748 15.6206C29.4547 15.3661 30.8081 16.1804 31.1799 17.5334C31.3518 18.1592 31.52 18.8166 31.6364 19.3771M21.2113 34.0265H31.6113C33.1577 34.0265 34.4113 32.7729 34.4113 31.2265V22.8265C34.4113 21.2801 33.1577 20.0265 31.6113 20.0265H21.2113C19.6649 20.0265 18.4113 21.2801 18.4113 22.8265V31.2265C18.4113 32.7729 19.6649 34.0265 21.2113 34.0265ZM20.8653 29.3239L22.2246 25.3594C22.4796 24.6155 23.454 24.4435 23.9483 25.0552L25.6915 27.2121C26.0723 27.6833 26.7812 27.7104 27.1968 27.2696L27.9728 26.4466C28.4063 25.9869 29.1521 26.0393 29.5169 26.5552L31.2958 29.0709C31.7642 29.7332 31.2906 30.6482 30.4794 30.6482H21.8113C21.1251 30.6482 20.6428 29.973 20.8653 29.3239Z" stroke="#131314" stroke-width="1.5" stroke-linecap="round"/>
<circle cx="30.4121" cy="23.6484" r="1" fill="#131314"/>
</svg>
