<svg width="24" height="25" viewBox="0 0 24 25" fill="none" xmlns="http://www.w3.org/2000/svg">
<path d="M20 17.5C20.5523 17.5 21 17.9477 21 18.5C21 19.0523 20.5523 19.5 20 19.5H4C3.44772 19.5 3 19.0523 3 18.5C3 17.9477 3.44772 17.5 4 17.5H20ZM20 13.5C20.5523 13.5 21 13.9477 21 14.5C21 15.0523 20.5523 15.5 20 15.5H4C3.44772 15.5 3 15.0523 3 14.5C3 13.9477 3.44772 13.5 4 13.5H20ZM20 9.5C20.5523 9.5 21 9.94772 21 10.5C21 11.0523 20.5523 11.5 20 11.5H4C3.44772 11.5 3 11.0523 3 10.5C3 9.94772 3.44772 9.5 4 9.5H20ZM20 5.5C20.5523 5.5 21 5.94772 21 6.5C21 7.05228 20.5523 7.5 20 7.5H4C3.44772 7.5 3 7.05228 3 6.5C3 5.94772 3.44772 5.5 4 5.5H20Z" fill="#131314" fill-opacity="0.8"/>
</svg>
