<svg width="32" height="32" viewBox="0 0 32 32" fill="none" xmlns="http://www.w3.org/2000/svg">
<path fill-rule="evenodd" clip-rule="evenodd" d="M15.5927 10.6601C15.0963 10.6855 14.6733 10.3037 14.6479 9.80728C14.6224 9.31088 15.0042 8.88785 15.5007 8.86243C18.2592 8.72118 21.0745 9.81565 23.1495 11.3636C24.1245 12.0909 24.9371 12.9171 25.5058 13.7591C26.0748 14.6013 26.3996 15.4591 26.3996 16.2496C26.3996 17.19 25.9357 18.2306 25.1574 19.2156C24.8493 19.6057 24.2834 19.6721 23.8933 19.364C23.5033 19.0559 23.4369 18.4899 23.745 18.0999C24.1549 17.581 24.5996 16.9321 24.5996 16.2496C24.5996 15.9372 24.4611 15.4282 24.0142 14.7666C23.5782 14.1211 22.9172 13.4359 22.0732 12.8063C20.2382 11.4375 17.9047 10.5417 15.5927 10.6601Z" fill="#131314" fill-opacity="0.8"/>
<path fill-rule="evenodd" clip-rule="evenodd" d="M8.84972 21.1356C10.7998 22.5903 13.3998 23.6496 15.9996 23.6496C17.9669 23.6496 19.9294 23.0428 21.6038 22.1266L22.8632 23.386C23.2147 23.7375 23.7845 23.7375 24.136 23.386C24.4875 23.0345 24.4875 22.4647 24.136 22.1132L10.636 8.61321C10.2845 8.26174 9.71468 8.26174 9.36321 8.61321C9.01174 8.96469 9.01174 9.53453 9.36321 9.88601L10.0471 10.5699C9.62847 10.8156 9.22776 11.0815 8.84972 11.3636C7.87469 12.0909 7.06217 12.9171 6.4934 13.7591C5.92444 14.6013 5.59961 15.4591 5.59961 16.2496C5.59961 17.04 5.92444 17.8978 6.4934 18.7401C7.06217 19.5821 7.87469 20.4083 8.84972 21.1356ZM14.3996 16.2496C14.3996 17.1332 15.116 17.8496 15.9996 17.8496C16.3719 17.8496 16.7142 17.7231 16.9864 17.5092L14.7399 15.2627C14.5262 15.535 14.3996 15.8776 14.3996 16.2496ZM15.9996 19.6496C14.1218 19.6496 12.5996 18.1274 12.5996 16.2496C12.5996 15.3797 12.9267 14.5864 13.463 13.9858L11.3694 11.8922C10.8565 12.1657 10.3716 12.4739 9.92599 12.8063C9.08198 13.4359 8.421 14.1211 7.98498 14.7666C7.5381 15.4282 7.39961 15.9372 7.39961 16.2496C7.39961 16.5619 7.5381 17.071 7.98498 17.7325C8.421 18.378 9.08198 19.0632 9.92599 19.6928C11.6304 20.9643 13.8619 21.8496 15.9996 21.8496C17.4388 21.8496 18.9246 21.4485 20.2687 20.7915L18.2635 18.7863C17.6629 19.3224 16.8692 19.6496 15.9996 19.6496Z" fill="#131314" fill-opacity="0.8"/>
</svg>
