<svg width="50" height="50" viewBox="0 0 50 50" fill="none" xmlns="http://www.w3.org/2000/svg">
<path d="M0 15C0 6.71573 6.71573 0 15 0H35C43.2843 0 50 6.71573 50 15V35C50 43.2843 43.2843 50 35 50H15C6.71573 50 0 43.2843 0 35V15Z" fill="#131314" fill-opacity="0.04"/>
<path d="M20 21.5625C20 20.6995 20.6996 20 21.5625 20C22.4254 20 23.125 20.6995 23.125 21.5625C23.125 22.4254 22.4254 23.125 21.5625 23.125C20.6996 23.125 20 22.4254 20 21.5625Z" fill="#131314"/>
<path fill-rule="evenodd" clip-rule="evenodd" d="M21.3527 15C19.1335 15 18.3265 15.2255 17.5146 15.6597C16.7149 16.0873 16.0873 16.7149 15.6597 17.5146C15.2255 18.3265 15 19.1335 15 21.3527V28.6473C15 30.8665 15.2255 31.6735 15.6597 32.4854C16.0873 33.2851 16.7149 33.9127 17.5146 34.3403C18.3265 34.7745 19.1335 35 21.3527 35H28.6473C30.8665 35 31.6735 34.7745 32.4854 34.3403C33.2851 33.9127 33.9127 33.2851 34.3403 32.4854C34.7745 31.6735 35 30.8665 35 28.6473V21.3527C35 19.1335 34.7745 18.3265 34.3403 17.5146C33.9127 16.7149 33.2851 16.0873 32.4854 15.6597C31.6735 15.2255 30.8665 15 28.6473 15H21.3527ZM19.7413 27.8391C20.0908 27.4896 20.3922 27.1881 20.6608 26.9601C20.9443 26.7195 21.2523 26.5061 21.6309 26.383C22.1958 26.1995 22.8042 26.1995 23.3691 26.383C23.7477 26.5061 24.0557 26.7195 24.3392 26.9601C24.5391 27.1298 24.7572 27.3402 24.9997 27.5807L27.2413 25.3391C27.5908 24.9896 27.8922 24.6881 28.1608 24.4601C28.4443 24.2195 28.7523 24.0061 29.1309 23.883C29.6958 23.6995 30.3042 23.6995 30.8691 23.883C31.2477 24.0061 31.5557 24.2195 31.8392 24.4601C32.1078 24.6881 32.4092 24.9896 32.7587 25.3391L33.125 25.7054V21.3527C33.125 19.2776 32.9141 18.8235 32.6869 18.3989C32.434 17.9259 32.0741 17.566 31.6011 17.3131C31.1765 17.0859 30.7223 16.875 28.6473 16.875H21.3527C19.2777 16.875 18.8235 17.0859 18.3989 17.3131C17.9259 17.566 17.566 17.9259 17.3131 18.3989C17.0859 18.8235 16.875 19.2777 16.875 21.3527V28.6473C16.875 29.5722 16.9169 30.1751 16.9835 30.5969L19.7413 27.8391ZM20 21.5625C20 22.4254 20.6996 23.125 21.5625 23.125C22.4254 23.125 23.125 22.4254 23.125 21.5625C23.125 20.6995 22.4254 20 21.5625 20C20.6996 20 20 20.6995 20 21.5625ZM30.2897 25.6663C30.1014 25.6051 29.8986 25.6051 29.7103 25.6663C29.6608 25.6823 29.5691 25.7241 29.3743 25.8895C29.1711 26.062 28.9238 26.3083 28.5416 26.6905L25.6629 29.5691C25.4871 29.745 25.2486 29.8437 25 29.8437C24.7514 29.8437 24.5129 29.745 24.3371 29.5691L23.9584 29.1905C23.5762 28.8083 23.3289 28.562 23.1257 28.3895C22.9309 28.2241 22.8392 28.1823 22.7897 28.1663C22.6014 28.1051 22.3986 28.1051 22.2103 28.1663C22.1608 28.1823 22.0691 28.2241 21.8743 28.3895C21.6711 28.562 21.4238 28.8083 21.0416 29.1905L17.8933 32.3388C18.0446 32.4716 18.213 32.5875 18.3989 32.6869C18.8235 32.9141 19.2776 33.125 21.3527 33.125H28.6473C30.7224 33.125 31.1765 32.9141 31.6011 32.6869C32.0741 32.434 32.434 32.0741 32.6869 31.6011C32.9141 31.1765 33.125 30.7224 33.125 28.6473V28.355C33.125 28.355 32.0112 27.2438 31.4584 26.6905C31.0762 26.3083 30.8289 26.062 30.6257 25.8895C30.4309 25.7241 30.3392 25.6823 30.2897 25.6663Z" fill="#131314"/>
</svg>
