<svg width="382" height="202" viewBox="0 0 382 202" fill="none" xmlns="http://www.w3.org/2000/svg">
<path d="M1 16C1 7.71573 7.71573 1 16 1H366C374.284 1 381 7.71573 381 16V186C381 194.284 374.284 201 366 201H16C7.71574 201 1 194.284 1 186V16Z" fill="white" stroke="#131314" stroke-opacity="0.4" stroke-width="2" stroke-dasharray="14 10"/>
<path d="M176.332 82.8535C176.332 82.3397 176.332 82.0827 176.353 81.8664C176.56 79.7793 178.211 78.1283 180.298 77.9215C180.515 77.9001 180.785 77.9001 181.327 77.9001C181.536 77.9001 181.64 77.9001 181.729 77.8947C182.86 77.8262 183.85 77.1123 184.273 76.0609C184.306 75.9785 184.337 75.8857 184.399 75.7C184.461 75.5144 184.492 75.4216 184.525 75.3392C184.947 74.2878 185.938 73.5739 187.069 73.5054C187.158 73.5 187.256 73.5 187.451 73.5H194.547C194.742 73.5 194.84 73.5 194.929 73.5054C196.06 73.5739 197.051 74.2878 197.473 75.3392C197.506 75.4216 197.537 75.5144 197.599 75.7C197.661 75.8857 197.692 75.9785 197.725 76.0609C198.148 77.1123 199.138 77.8262 200.269 77.8947C200.358 77.9001 200.462 77.9001 200.671 77.9001C201.213 77.9001 201.483 77.9001 201.7 77.9215C203.787 78.1283 205.438 79.7793 205.645 81.8664C205.666 82.0827 205.666 82.3397 205.666 82.8535V94.3271C205.666 96.7914 205.666 98.0236 205.186 98.9648C204.765 99.7927 204.091 100.466 203.264 100.888C202.322 101.367 201.09 101.367 198.626 101.367H183.372C180.908 101.367 179.676 101.367 178.735 100.888C177.907 100.466 177.233 99.7927 176.812 98.9648C176.332 98.0236 176.332 96.7914 176.332 94.3271V82.8535Z" stroke="#131314" stroke-opacity="0.4" stroke-width="2.9334" stroke-linecap="round" stroke-linejoin="round"/>
<path d="M190.999 94.7671C194.239 94.7671 196.866 92.1405 196.866 88.9003C196.866 85.6602 194.239 83.0335 190.999 83.0335C187.759 83.0335 185.132 85.6602 185.132 88.9003C185.132 92.1405 187.759 94.7671 190.999 94.7671Z" stroke="#131314" stroke-opacity="0.4" stroke-width="2.9334" stroke-linecap="round" stroke-linejoin="round"/>
<path d="M127.008 113.767H128.832V125.367H127.008V120.167H121.184V125.367H119.36V113.767H121.184V118.631H127.008V113.767ZM135.04 124.151C136.256 124.151 136.928 123.655 137.296 122.839H138.976C138.592 124.263 137.28 125.575 135.104 125.575C132.336 125.575 130.816 123.543 130.816 121.047C130.816 118.375 132.608 116.599 135.056 116.599C137.712 116.599 139.264 118.775 139.088 121.575H132.528C132.704 123.175 133.68 124.151 135.04 124.151ZM135.04 117.959C133.744 117.959 132.8 118.615 132.56 120.263H137.36C137.312 118.999 136.4 117.959 135.04 117.959ZM148.718 117.255C150.702 117.255 152.414 118.631 152.414 121.335C152.414 124.103 150.558 125.575 148.414 125.575C146.174 125.575 144.318 123.991 144.318 120.775V119.895C144.366 116.775 145.582 114.791 148.862 114.199L151.774 113.687V115.127L148.942 115.671C147.086 116.007 145.998 116.807 145.742 118.935C146.334 117.799 147.486 117.255 148.718 117.255ZM148.43 124.183C149.774 124.183 150.67 123.175 150.67 121.367C150.67 119.559 149.678 118.647 148.446 118.647C147.166 118.647 146.062 119.495 146.062 121.351C146.062 123.127 147.038 124.183 148.43 124.183ZM155.548 121.095C155.548 123.207 156.716 124.167 157.964 124.167C159.244 124.167 160.396 123.191 160.396 121.095C160.396 118.967 159.244 118.007 157.964 118.007C156.716 118.007 155.548 118.919 155.548 121.095ZM157.964 116.599C160.012 116.599 162.156 117.975 162.156 121.095C162.156 124.199 160.012 125.575 157.964 125.575C155.932 125.575 153.788 124.199 153.788 121.095C153.788 117.975 155.932 116.599 157.964 116.599ZM170.724 116.759V125.367H169.06V118.087H166.388L166.308 119.703C166.132 123.335 165.364 125.367 163.14 125.367H162.836V124.039H163.012C164.036 124.039 164.532 122.727 164.708 119.447L164.836 116.759H170.724ZM174.886 119.735H176.838C179.126 119.735 180.134 120.775 180.134 122.487C180.134 124.663 178.742 125.367 176.694 125.367H173.222V116.759H174.886V119.735ZM174.886 124.039H176.646C177.862 124.039 178.47 123.575 178.47 122.487C178.47 121.415 177.862 121.063 176.63 121.063H174.886V124.039ZM192.892 116.759V125.367H181.916V116.759H183.58V124.039H186.572V116.759H188.236V124.039H191.228V116.759H192.892ZM198.943 124.151C200.159 124.151 200.831 123.655 201.199 122.839H202.879C202.495 124.263 201.183 125.575 199.007 125.575C196.239 125.575 194.719 123.543 194.719 121.047C194.719 118.375 196.511 116.599 198.959 116.599C201.615 116.599 203.167 118.775 202.991 121.575H196.431C196.607 123.175 197.583 124.151 198.943 124.151ZM198.943 117.959C197.647 117.959 196.703 118.615 196.463 120.263H201.263C201.215 118.999 200.303 117.959 198.943 117.959ZM212.269 113.559C214.413 113.559 215.997 114.647 215.997 116.615C215.997 119.159 213.437 121.479 210.061 123.863H216.301V125.367H207.901V123.927C211.885 120.887 214.253 118.807 214.253 116.791C214.253 115.623 213.485 114.887 212.221 114.887C211.037 114.887 209.885 115.559 209.885 117.431H208.189C208.141 115.111 209.789 113.559 212.269 113.559ZM222.161 124.231C223.937 124.231 224.961 122.679 224.961 119.559C224.961 116.471 223.937 114.887 222.161 114.887C220.417 114.887 219.361 116.471 219.361 119.559C219.361 122.679 220.417 124.231 222.161 124.231ZM222.161 125.575C219.073 125.575 217.601 123.191 217.601 119.559C217.601 115.943 219.073 113.559 222.161 113.559C225.265 113.559 226.721 115.943 226.721 119.559C226.721 123.191 225.265 125.575 222.161 125.575ZM232.808 124.231C234.584 124.231 235.608 122.679 235.608 119.559C235.608 116.471 234.584 114.887 232.808 114.887C231.064 114.887 230.008 116.471 230.008 119.559C230.008 122.679 231.064 124.231 232.808 124.231ZM232.808 125.575C229.72 125.575 228.248 123.191 228.248 119.559C228.248 115.943 229.72 113.559 232.808 113.559C235.912 113.559 237.368 115.943 237.368 119.559C237.368 123.191 235.912 125.575 232.808 125.575ZM253.065 116.759V125.367H251.465V118.503L248.777 125.367H247.529L244.841 118.567V125.367H243.241V116.759H245.721L248.201 123.159L250.585 116.759H253.065ZM259.511 117.255C261.495 117.255 263.207 118.631 263.207 121.335C263.207 124.103 261.351 125.575 259.207 125.575C256.967 125.575 255.111 123.991 255.111 120.775V119.895C255.159 116.775 256.375 114.791 259.655 114.199L262.567 113.687V115.127L259.735 115.671C257.879 116.007 256.791 116.807 256.535 118.935C257.127 117.799 258.279 117.255 259.511 117.255ZM259.223 124.183C260.567 124.183 261.463 123.175 261.463 121.367C261.463 119.559 260.471 118.647 259.239 118.647C257.959 118.647 256.855 119.495 256.855 121.351C256.855 123.127 257.831 124.183 259.223 124.183Z" fill="#131314" fill-opacity="0.4"/>
</svg>
