<svg width="382" height="202" viewBox="0 0 382 202" fill="none" xmlns="http://www.w3.org/2000/svg">
<path d="M1 16C1 7.71573 7.71573 1 16 1H366C374.284 1 381 7.71573 381 16V186C381 194.284 374.284 201 366 201H16C7.71574 201 1 194.284 1 186V16Z" fill="#013DF6" fill-opacity="0.09" stroke="#013DF6" stroke-width="2" stroke-dasharray="14 10"/>
<path d="M78.862 108.434H76.81V97.1296H70.582V108.434H68.53V95.3836H78.862V108.434ZM85.8405 107.066C87.2085 107.066 87.9645 106.508 88.3785 105.59H90.2685C89.8365 107.192 88.3605 108.668 85.9125 108.668C82.7985 108.668 81.0885 106.382 81.0885 103.574C81.0885 100.568 83.1045 98.5696 85.8585 98.5696C88.8465 98.5696 90.5925 101.018 90.3945 104.168H83.0145C83.2125 105.968 84.3105 107.066 85.8405 107.066ZM85.8405 100.1C84.3825 100.1 83.3205 100.838 83.0505 102.692H88.4505C88.3965 101.27 87.3705 100.1 85.8405 100.1ZM92.3487 98.7496H94.2207V100.172C94.8147 99.1636 95.8047 98.5696 97.2447 98.5696C99.4947 98.5696 101.421 100.442 101.421 103.61C101.421 106.778 99.4947 108.668 97.2447 108.668C95.8047 108.668 94.8147 108.074 94.2207 107.066V111.584H92.3487V98.7496ZM94.1487 103.61C94.1487 106.004 95.3727 107.102 96.8127 107.102C98.3787 107.102 99.4227 105.788 99.4227 103.61C99.4227 101.432 98.3787 100.136 96.8127 100.136C95.3727 100.136 94.1487 101.216 94.1487 103.61ZM107.679 107.066C109.047 107.066 109.803 106.508 110.217 105.59H112.107C111.675 107.192 110.199 108.668 107.751 108.668C104.637 108.668 102.927 106.382 102.927 103.574C102.927 100.568 104.943 98.5696 107.697 98.5696C110.685 98.5696 112.431 101.018 112.233 104.168H104.853C105.051 105.968 106.149 107.066 107.679 107.066ZM107.679 100.1C106.221 100.1 105.159 100.838 104.889 102.692H110.289C110.235 101.27 109.209 100.1 107.679 100.1ZM121.575 100.244H118.173V108.434H116.301V100.244H112.881V98.7496H121.575V100.244ZM128.738 104.528V103.826C125.732 104.114 124.148 104.546 124.148 105.788C124.148 106.67 124.832 107.228 125.984 107.228C127.514 107.228 128.738 106.454 128.738 104.528ZM125.57 108.668C123.608 108.668 122.114 107.588 122.114 105.824C122.114 103.466 124.904 102.818 128.648 102.44V102.242C128.648 100.532 127.748 99.9556 126.56 99.9556C125.264 99.9556 124.526 100.604 124.454 101.81H122.564C122.708 99.7396 124.418 98.5156 126.632 98.5156C129.134 98.5156 130.556 99.7216 130.538 102.62C130.538 102.854 130.502 104.528 130.502 104.942C130.502 106.4 130.592 107.57 130.772 108.434H128.972C128.9 108.056 128.864 107.786 128.81 107.156C128.234 108.146 127.154 108.668 125.57 108.668ZM146.774 106.94V110.738H145.01V108.434H133.04V98.7496H134.912V106.94H138.278V98.7496H140.15V106.94H143.516V98.7496H145.388V106.94H146.774ZM150.603 108.434H148.767V98.7496H150.603V105.752L155.337 98.7496H157.173V108.434H155.337V101.45L150.603 108.434ZM167.608 100.244H164.206V108.434H162.334V100.244H158.914V98.7496H167.608V100.244ZM172.914 107.066C174.282 107.066 175.038 106.508 175.452 105.59H177.342C176.91 107.192 175.434 108.668 172.986 108.668C169.872 108.668 168.162 106.382 168.162 103.574C168.162 100.568 170.178 98.5696 172.932 98.5696C175.92 98.5696 177.666 101.018 177.468 104.168H170.088C170.286 105.968 171.384 107.066 172.914 107.066ZM172.914 100.1C171.456 100.1 170.394 100.838 170.124 102.692H175.524C175.47 101.27 174.444 100.1 172.914 100.1ZM190.095 108.434L186.837 104.168H185.703V108.434H183.831V98.7496H185.703V102.674H186.891L189.843 98.7496H192.021L188.367 103.376L192.345 108.434H190.095ZM199.697 104.528V103.826C196.691 104.114 195.107 104.546 195.107 105.788C195.107 106.67 195.791 107.228 196.943 107.228C198.473 107.228 199.697 106.454 199.697 104.528ZM196.529 108.668C194.567 108.668 193.073 107.588 193.073 105.824C193.073 103.466 195.863 102.818 199.607 102.44V102.242C199.607 100.532 198.707 99.9556 197.519 99.9556C196.223 99.9556 195.485 100.604 195.413 101.81H193.523C193.667 99.7396 195.377 98.5156 197.591 98.5156C200.093 98.5156 201.515 99.7216 201.497 102.62C201.497 102.854 201.461 104.528 201.461 104.942C201.461 106.4 201.551 107.57 201.731 108.434H199.931C199.859 108.056 199.823 107.786 199.769 107.156C199.193 108.146 198.113 108.668 196.529 108.668ZM203.91 98.7496H205.782V100.172C206.376 99.1636 207.366 98.5696 208.806 98.5696C211.056 98.5696 212.982 100.442 212.982 103.61C212.982 106.778 211.056 108.668 208.806 108.668C207.366 108.668 206.376 108.074 205.782 107.066V111.584H203.91V98.7496ZM205.71 103.61C205.71 106.004 206.934 107.102 208.374 107.102C209.94 107.102 210.984 105.788 210.984 103.61C210.984 101.432 209.94 100.136 208.374 100.136C206.934 100.136 205.71 101.216 205.71 103.61ZM222.243 100.244H218.841V108.434H216.969V100.244H213.549V98.7496H222.243V100.244ZM225.793 108.434H223.957V98.7496H225.793V105.752L230.527 98.7496H232.363V108.434H230.527V101.45L225.793 108.434ZM243.644 108.434H241.772V104.222H237.056V108.434H235.184V98.7496H237.056V102.728H241.772V98.7496H243.644V108.434ZM252.71 108.434L249.452 104.168H248.318V108.434H246.446V98.7496H248.318V102.674H249.506L252.458 98.7496H254.636L250.982 103.376L254.96 108.434H252.71ZM256.908 111.584H256.008V110.09H256.746C257.754 110.09 258.186 110 258.654 108.632L258.726 108.416L255.234 98.7496H257.304L259.644 105.968L261.93 98.7496H263.874L260.454 108.65C259.644 110.936 259.104 111.584 256.908 111.584ZM273.575 98.5696C275.789 98.5696 277.481 100.136 277.769 102.026H275.897C275.699 100.928 274.709 100.172 273.485 100.172C272.135 100.172 270.893 101.234 270.893 103.592C270.893 105.986 272.135 107.066 273.485 107.066C274.691 107.066 275.699 106.364 275.969 105.212H277.859C277.463 107.246 275.591 108.668 273.449 108.668C270.641 108.668 268.895 106.544 268.895 103.61C268.895 100.748 270.713 98.5696 273.575 98.5696ZM287.905 98.5696C290.119 98.5696 292.441 100.118 292.441 103.628C292.441 107.12 290.119 108.668 287.905 108.668C285.871 108.668 283.729 107.3 283.495 104.222H281.677V108.434H279.805V98.7496H281.677V102.728H283.531C283.873 99.8476 285.979 98.5696 287.905 98.5696ZM287.905 107.084C289.237 107.084 290.461 105.986 290.461 103.628C290.461 101.234 289.237 100.154 287.905 100.154C286.663 100.154 285.457 101.18 285.457 103.628C285.457 106.004 286.663 107.084 287.905 107.084ZM303.611 106.94V110.738H301.847V108.434H294.953V110.738H293.189V106.94H293.657C294.647 106.94 295.115 105.518 295.259 101.846L295.385 98.7496H302.225V106.94H303.611ZM300.353 106.94V100.244H297.131L297.005 102.404C296.879 104.654 296.591 106.148 295.817 106.94H300.353ZM311.557 104.528V103.826C308.551 104.114 306.967 104.546 306.967 105.788C306.967 106.67 307.651 107.228 308.803 107.228C310.333 107.228 311.557 106.454 311.557 104.528ZM308.389 108.668C306.427 108.668 304.933 107.588 304.933 105.824C304.933 103.466 307.723 102.818 311.467 102.44V102.242C311.467 100.532 310.567 99.9556 309.379 99.9556C308.083 99.9556 307.345 100.604 307.273 101.81H305.383C305.527 99.7396 307.237 98.5156 309.451 98.5156C311.953 98.5156 313.375 99.7216 313.357 102.62C313.357 102.854 313.321 104.528 313.321 104.942C313.321 106.4 313.411 107.57 313.591 108.434H311.791C311.719 108.056 311.683 107.786 311.629 107.156C311.053 108.146 309.973 108.668 308.389 108.668Z" fill="#013DF6"/>
</svg>
