<svg width="37" height="36" viewBox="0 0 37 36" fill="none" xmlns="http://www.w3.org/2000/svg">
<path d="M11.7969 24L9.31694 19.104C9.07694 19.12 8.82094 19.12 8.56494 19.12H6.56494V24H4.74094V12.4H8.42094C11.5409 12.4 13.4129 13.056 13.4129 15.744C13.4129 17.408 12.6289 18.352 11.1729 18.8L13.8449 24H11.7969ZM8.62894 13.904H6.56494V17.632H8.66094C10.3729 17.632 11.5409 17.376 11.5409 15.776C11.5409 14.112 10.2769 13.904 8.62894 13.904ZM20.7523 24V22.784C20.2563 23.664 19.4243 24.208 18.1283 24.208C16.0963 24.208 15.3123 22.96 15.3123 20.864V15.392H16.9763V20.416C16.9763 21.648 17.1843 22.8 18.6883 22.8C20.0963 22.8 20.7683 21.776 20.7683 20.064V15.392H22.4323V24H20.7523Z" fill="#131314"/>
<path d="M27 16.25L30.5 19.75L34 16.25" stroke="#131314" stroke-opacity="0.4" stroke-width="1.5" stroke-linecap="round" stroke-linejoin="round"/>
</svg>
