<svg width="27" height="27" viewBox="0 0 27 27" fill="none" xmlns="http://www.w3.org/2000/svg">
<path d="M22.4761 4.52825C20.5114 2.5635 17.3259 2.5635 15.3611 4.52825L10.7764 9.11362C8.81172 11.0784 8.81172 14.2632 10.7765 16.2279C11.172 16.6235 11.8134 16.6235 12.209 16.2279C12.6045 15.8323 12.6045 15.191 12.209 14.7954C11.0354 13.6218 11.0354 11.7196 12.209 10.546L16.7937 5.9607C17.9673 4.78715 19.87 4.78717 21.0436 5.96075C22.2172 7.13434 22.2172 9.03714 21.0436 10.2107L19.8974 11.3569C19.5017 11.7524 19.5017 12.3938 19.8973 12.7894C20.2928 13.185 20.9342 13.185 21.3298 12.7895L22.4761 11.6432C24.4409 9.67849 24.4409 6.493 22.4761 4.52825Z" fill="#131314"/>
<path d="M4.52483 22.4718C6.48958 24.4366 9.67507 24.4366 11.6398 22.4718L16.2245 17.8865C18.1892 15.9217 18.1892 12.7369 16.2245 10.7722C15.8289 10.3766 15.1876 10.3766 14.792 10.7722C14.3964 11.1678 14.3964 11.8091 14.792 12.2047C15.9656 13.3783 15.9655 15.2805 14.7919 16.4541L10.2073 21.0394C9.03367 22.2129 7.13092 22.2129 5.95733 21.0393C4.78375 19.8658 4.78378 17.963 5.95733 16.7893L7.10361 15.6432C7.49921 15.2477 7.49925 14.6063 7.1037 14.2107C6.70816 13.8151 6.0668 13.8151 5.6712 14.2106L4.52483 15.3568C2.56008 17.3216 2.56008 20.5071 4.52483 22.4718Z" fill="#131314"/>
</svg>
