<svg width="50" height="50" viewBox="0 0 50 50" fill="none" xmlns="http://www.w3.org/2000/svg">
<path d="M0 15C0 6.71573 6.71573 0 15 0H35C43.2843 0 50 6.71573 50 15V35C50 43.2843 43.2843 50 35 50H15C6.71573 50 0 43.2843 0 35V15Z" fill="#131314" fill-opacity="0.04"/>
<path d="M34.4242 23.1514C34.4242 25.7079 33.5426 29.2788 30.3364 29.2788C29.2288 29.2788 27.805 28.6134 27.5105 27.4364C27.0035 28.5542 25.6681 29.205 24.4982 29.205C23.2052 29.205 22.1033 28.5468 21.5673 27.359C21.101 26.3257 21.1818 25.168 21.1818 24.0625C21.1818 22.0749 22.3066 20.1818 24.5147 20.1818C25.6122 20.1818 26.7379 20.7306 27.1697 21.7849V21.3333C27.1697 20.8564 27.5564 20.4697 28.0333 20.4697C28.5103 20.4697 28.897 20.8564 28.897 21.3333V25.9394C28.897 26.8672 29.4603 27.6107 30.4216 27.6107C32.5573 27.6107 32.697 24.7517 32.697 23.2114C32.697 19.2215 29.1971 16.7273 25.4001 16.7273C21.0987 16.7273 17.8424 19.9568 17.8424 24.3502C17.8424 28.7864 20.5572 32.3457 25.291 32.3457C26.017 32.3457 26.7397 32.2745 27.4576 32.1691C28.0689 32.0893 29.0874 31.9541 29.0874 32.8485C29.0874 33.2947 28.7431 33.5929 28.3354 33.7003C27.321 33.9587 26.26 34 25.2182 34C19.3702 34 16 29.7918 16 24.2782C16 18.8807 20.1408 15 25.4001 15C30.1463 15 34.4242 18.2232 34.4242 23.1514ZM25.0682 21.9091C24.0347 21.9091 23.197 22.7469 23.197 23.7803V25.5652C23.197 26.5986 24.0347 27.4364 25.0682 27.4364C26.1016 27.4364 26.9394 26.5986 26.9394 25.5652V23.7803C26.9394 22.7469 26.1016 21.9091 25.0682 21.9091Z" fill="#131314"/>
</svg>
