<svg width="50" height="50" viewBox="0 0 50 50" fill="none" xmlns="http://www.w3.org/2000/svg">
<path d="M0 15C0 6.71573 6.71573 0 15 0H35C43.2843 0 50 6.71573 50 15V35C50 43.2843 43.2843 50 35 50H15C6.71573 50 0 43.2843 0 35V15Z" fill="#131314" fill-opacity="0.04"/>
<path d="M37.2857 20.7143C37.2857 23.8702 34.7273 26.4286 31.5714 26.4286C28.4155 26.4286 25.8571 23.8702 25.8571 20.7143C25.8571 17.5584 28.4155 15 31.5714 15C34.7273 15 37.2857 17.5584 37.2857 20.7143Z" fill="#131314"/>
<path d="M28.7143 20.7143C28.7143 19.1363 29.9935 17.8571 31.5714 17.8571C33.1494 17.8571 34.4286 19.1363 34.4286 20.7143H28.7143Z" fill="#131314"/>
<path d="M23 20.7143C23 19.7125 23.1719 18.7508 23.4877 17.8571H14.4286C13.6396 17.8571 13 18.4967 13 19.2857C13 20.0747 13.6396 20.7143 14.4286 20.7143H23Z" fill="#131314"/>
<path d="M24.1467 25C24.8101 26.1468 25.7316 27.1257 26.8317 27.8571H14.4286C13.6396 27.8571 13 27.2176 13 26.4286C13 25.6396 13.6396 25 14.4286 25H24.1467Z" fill="#131314"/>
<path d="M14.4286 32.1429C13.6396 32.1429 13 32.7824 13 33.5714C13 34.3604 13.6396 35 14.4286 35H34.4286C35.2176 35 35.8571 34.3604 35.8571 33.5714C35.8571 32.7824 35.2176 32.1429 34.4286 32.1429H14.4286Z" fill="#131314"/>
</svg>
