<svg width="382" height="202" viewBox="0 0 382 202" fill="none" xmlns="http://www.w3.org/2000/svg">
<path d="M1 16C1 7.71573 7.71573 1 16 1H366C374.284 1 381 7.71573 381 16V186C381 194.284 374.284 201 366 201H16C7.71574 201 1 194.284 1 186V16Z" fill="white" stroke="#131314" stroke-opacity="0.4" stroke-width="2" stroke-dasharray="14 10"/>
<path d="M191.5 118C190.822 118 190.273 117.451 190.273 116.773C190.273 116.095 190.822 115.545 191.5 115.545C200.086 115.545 207.045 108.586 207.045 100C207.045 91.4145 200.086 84.4545 191.5 84.4545C182.914 84.4545 175.955 91.4145 175.955 100C175.955 102.585 176.585 105.076 177.774 107.305C178.093 107.903 177.867 108.646 177.269 108.965C176.671 109.284 175.927 109.058 175.608 108.46C174.231 105.878 173.5 102.99 173.5 100C173.5 90.0589 181.559 82 191.5 82C201.441 82 209.5 90.0589 209.5 100C209.5 109.941 201.441 118 191.5 118Z" fill="#131314" fill-opacity="0.4" stroke="#131314" stroke-opacity="0.4" stroke-width="1.38462" stroke-linecap="round" stroke-linejoin="round"/>
<path d="M148.392 132.872C149.608 133.24 150.44 134.088 150.44 135.688C150.44 138.12 148.472 139.192 146.168 139.192C143.368 139.192 141.896 137.784 141.512 135.56H143.256C143.512 136.968 144.536 137.688 146.216 137.688C147.736 137.688 148.568 136.92 148.568 135.64C148.568 134.424 147.816 133.768 146.152 133.768H144.712V132.264H146.04C147.368 132.264 148.28 131.672 148.28 130.52C148.28 129.304 147.496 128.712 146.152 128.712C144.744 128.712 143.512 129.48 143.384 130.968H141.624C141.88 128.712 143.544 127.192 146.056 127.192C148.36 127.192 150.12 128.328 150.12 130.312C150.12 131.512 149.496 132.312 148.392 132.872ZM157.705 135.528V134.904C155.033 135.16 153.625 135.544 153.625 136.648C153.625 137.432 154.233 137.928 155.257 137.928C156.617 137.928 157.705 137.24 157.705 135.528ZM154.889 139.208C153.145 139.208 151.817 138.248 151.817 136.68C151.817 134.584 154.297 134.008 157.625 133.672V133.496C157.625 131.976 156.825 131.464 155.769 131.464C154.617 131.464 153.961 132.04 153.897 133.112H152.217C152.345 131.272 153.865 130.184 155.833 130.184C158.057 130.184 159.321 131.256 159.305 133.832C159.305 134.04 159.273 135.528 159.273 135.896C159.273 137.192 159.353 138.232 159.513 139H157.913C157.849 138.664 157.817 138.424 157.769 137.864C157.257 138.744 156.297 139.208 154.889 139.208ZM167.205 131.72H163.205V139H161.541V130.392H167.205V131.72ZM168.607 130.392H170.271V131.656C170.799 130.76 171.679 130.232 172.959 130.232C174.959 130.232 176.671 131.896 176.671 134.712C176.671 137.528 174.959 139.208 172.959 139.208C171.679 139.208 170.799 138.68 170.271 137.784V141.8H168.607V130.392ZM170.207 134.712C170.207 136.84 171.295 137.816 172.575 137.816C173.967 137.816 174.895 136.648 174.895 134.712C174.895 132.776 173.967 131.624 172.575 131.624C171.295 131.624 170.207 132.584 170.207 134.712ZM178.638 141.8H177.838V140.472H178.494C179.39 140.472 179.774 140.392 180.19 139.176L180.254 138.984L177.15 130.392H178.99L181.07 136.808L183.102 130.392H184.83L181.79 139.192C181.07 141.224 180.59 141.8 178.638 141.8ZM187.114 139H185.114L188.282 134.488L185.386 130.392H187.289L189.626 133.88H190.682V130.392H192.346V133.88H193.385L195.738 130.392H197.658L194.762 134.456L197.914 139H195.946L193.385 135.208H192.346V139H190.682V135.208H189.674L187.114 139ZM204.487 135.528V134.904C201.815 135.16 200.407 135.544 200.407 136.648C200.407 137.432 201.015 137.928 202.039 137.928C203.399 137.928 204.487 137.24 204.487 135.528ZM201.671 139.208C199.927 139.208 198.599 138.248 198.599 136.68C198.599 134.584 201.079 134.008 204.407 133.672V133.496C204.407 131.976 203.607 131.464 202.551 131.464C201.399 131.464 200.743 132.04 200.679 133.112H198.999C199.127 131.272 200.647 130.184 202.615 130.184C204.839 130.184 206.103 131.256 206.087 133.832C206.087 134.04 206.055 135.528 206.055 135.896C206.055 137.192 206.135 138.232 206.295 139H204.695C204.631 138.664 204.599 138.424 204.551 137.864C204.039 138.744 203.079 139.208 201.671 139.208ZM211.874 137.784C213.09 137.784 213.762 137.288 214.13 136.472H215.81C215.426 137.896 214.114 139.208 211.938 139.208C209.17 139.208 207.65 137.176 207.65 134.68C207.65 132.008 209.442 130.232 211.89 130.232C214.546 130.232 216.098 132.408 215.922 135.208H209.362C209.538 136.808 210.514 137.784 211.874 137.784ZM211.874 131.592C210.578 131.592 209.634 132.248 209.394 133.896H214.194C214.146 132.632 213.234 131.592 211.874 131.592ZM224.237 131.72H221.213V139H219.549V131.72H216.509V130.392H224.237V131.72ZM228.901 130.232C230.869 130.232 232.373 131.624 232.629 133.304H230.965C230.789 132.328 229.909 131.656 228.821 131.656C227.621 131.656 226.517 132.6 226.517 134.696C226.517 136.824 227.621 137.784 228.821 137.784C229.893 137.784 230.789 137.16 231.029 136.136H232.709C232.357 137.944 230.693 139.208 228.789 139.208C226.293 139.208 224.741 137.32 224.741 134.712C224.741 132.168 226.357 130.232 228.901 130.232ZM235.24 139H233.256L235.672 135.576C234.664 135.208 233.96 134.408 233.96 133.112C233.96 131.336 235.144 130.392 237.208 130.392H240.696V139H239.032V136.024H237.32L235.24 139ZM237.368 134.696H239.032V131.72H237.336C236.312 131.72 235.624 132.264 235.624 133.224C235.624 134.312 236.36 134.696 237.368 134.696Z" fill="#131314" fill-opacity="0.4"/>
</svg>
