<svg width="380" height="384" viewBox="0 0 380 384" fill="none" xmlns="http://www.w3.org/2000/svg">
<rect x="1" y="1" width="378" height="382" rx="14" stroke="#131314" stroke-opacity="0.4" stroke-width="2" stroke-dasharray="14 10"/>
<path d="M162.664 168.464C162.664 167.507 162.664 167.028 162.704 166.625C163.089 162.735 166.166 159.658 170.055 159.273C170.459 159.233 170.963 159.233 171.973 159.233C172.361 159.233 172.556 159.233 172.721 159.223C174.829 159.095 176.675 157.765 177.463 155.806C177.524 155.652 177.582 155.479 177.697 155.133C177.813 154.787 177.87 154.614 177.932 154.461C178.72 152.501 180.566 151.171 182.674 151.043C182.839 151.033 183.021 151.033 183.386 151.033H196.609C196.973 151.033 197.156 151.033 197.321 151.043C199.429 151.171 201.275 152.501 202.062 154.461C202.124 154.614 202.182 154.787 202.297 155.133C202.412 155.479 202.47 155.652 202.532 155.806C203.319 157.765 205.165 159.095 207.273 159.223C207.438 159.233 207.633 159.233 208.022 159.233C209.031 159.233 209.535 159.233 209.939 159.273C213.828 159.658 216.905 162.735 217.29 166.625C217.33 167.028 217.33 167.507 217.33 168.464V189.846C217.33 194.438 217.33 196.735 216.436 198.489C215.65 200.032 214.396 201.286 212.853 202.072C211.099 202.966 208.803 202.966 204.21 202.966H175.784C171.192 202.966 168.895 202.966 167.141 202.072C165.598 201.286 164.344 200.032 163.558 198.489C162.664 196.735 162.664 194.438 162.664 189.846V168.464Z" stroke="#131314" stroke-opacity="0.4" stroke-width="5.4666" stroke-linecap="round" stroke-linejoin="round"/>
<path d="M189.997 190.666C196.035 190.666 200.93 185.771 200.93 179.733C200.93 173.695 196.035 168.8 189.997 168.8C183.959 168.8 179.064 173.695 179.064 179.733C179.064 185.771 183.959 190.666 189.997 190.666Z" stroke="#131314" stroke-opacity="0.4" stroke-width="5.4666" stroke-linecap="round" stroke-linejoin="round"/>
<path d="M111.194 229.281V220.896H112.754V229.236C112.754 231.096 112.334 231.591 110.639 231.591H109.994V230.331H110.354C111.074 230.331 111.194 230.136 111.194 229.281ZM111.194 218.091H112.754V219.816H111.194V218.091ZM114.956 220.896H116.516V222.081C117.011 221.241 117.836 220.746 119.036 220.746C120.911 220.746 122.516 222.306 122.516 224.946C122.516 227.586 120.911 229.161 119.036 229.161C117.836 229.161 117.011 228.666 116.516 227.826V231.591H114.956V220.896ZM116.456 224.946C116.456 226.941 117.476 227.856 118.676 227.856C119.981 227.856 120.851 226.761 120.851 224.946C120.851 223.131 119.981 222.051 118.676 222.051C117.476 222.051 116.456 222.951 116.456 224.946ZM127.69 227.826C128.83 227.826 129.46 227.361 129.805 226.596H131.38C131.02 227.931 129.79 229.161 127.75 229.161C125.155 229.161 123.73 227.256 123.73 224.916C123.73 222.411 125.41 220.746 127.705 220.746C130.195 220.746 131.65 222.786 131.485 225.411H125.335C125.5 226.911 126.415 227.826 127.69 227.826ZM127.69 222.021C126.475 222.021 125.59 222.636 125.365 224.181H129.865C129.82 222.996 128.965 222.021 127.69 222.021ZM138.558 222.081V220.896H140.118V228.021C140.118 229.506 139.803 230.301 139.248 230.856C138.633 231.501 137.673 231.831 136.428 231.831C134.613 231.831 133.308 231.051 133.053 229.356H134.658C134.823 230.091 135.273 230.526 136.458 230.526C137.193 230.526 137.733 230.331 138.078 229.941C138.393 229.596 138.558 229.191 138.558 228.351V227.496C138.063 228.336 137.268 228.831 136.068 228.831C134.193 228.831 132.633 227.361 132.633 224.781C132.633 222.216 134.193 220.746 136.068 220.746C137.268 220.746 138.063 221.241 138.558 222.081ZM138.618 224.781C138.618 222.861 137.628 222.036 136.428 222.036C135.123 222.036 134.298 223.041 134.298 224.781C134.298 226.536 135.123 227.556 136.428 227.556C137.628 227.556 138.618 226.701 138.618 224.781ZM142.132 228.966V227.091H144.007V229.101L143.032 231.186H142.057L142.957 228.966H142.132ZM149.66 220.896H151.22V222.081C151.715 221.241 152.54 220.746 153.74 220.746C155.615 220.746 157.22 222.306 157.22 224.946C157.22 227.586 155.615 229.161 153.74 229.161C152.54 229.161 151.715 228.666 151.22 227.826V231.591H149.66V220.896ZM151.16 224.946C151.16 226.941 152.18 227.856 153.38 227.856C154.685 227.856 155.555 226.761 155.555 224.946C155.555 223.131 154.685 222.051 153.38 222.051C152.18 222.051 151.16 222.951 151.16 224.946ZM160.431 220.896V222.066C160.896 221.271 161.706 220.746 162.966 220.746C164.916 220.746 165.666 222.006 165.666 223.881V228.966H164.106V224.301C164.106 223.146 163.926 222.051 162.441 222.051C161.076 222.051 160.431 223.011 160.431 224.631V228.966H158.871V220.896H160.431ZM173.087 222.081V220.896H174.647V228.021C174.647 229.506 174.332 230.301 173.777 230.856C173.162 231.501 172.202 231.831 170.957 231.831C169.142 231.831 167.837 231.051 167.582 229.356H169.187C169.352 230.091 169.802 230.526 170.987 230.526C171.722 230.526 172.262 230.331 172.607 229.941C172.922 229.596 173.087 229.191 173.087 228.351V227.496C172.592 228.336 171.797 228.831 170.597 228.831C168.722 228.831 167.162 227.361 167.162 224.781C167.162 222.216 168.722 220.746 170.597 220.746C171.797 220.746 172.592 221.241 173.087 222.081ZM173.147 224.781C173.147 222.861 172.157 222.036 170.957 222.036C169.652 222.036 168.827 223.041 168.827 224.781C168.827 226.536 169.652 227.556 170.957 227.556C172.157 227.556 173.147 226.701 173.147 224.781ZM176.66 228.966V227.091H178.535V229.101L177.56 231.186H176.585L177.485 228.966H176.66ZM184.188 229.281V220.896H185.748V229.236C185.748 231.096 185.328 231.591 183.633 231.591H182.988V230.331H183.348C184.068 230.331 184.188 230.136 184.188 229.281ZM184.188 218.091H185.748V219.816H184.188V218.091ZM187.951 220.896H189.511V222.081C190.006 221.241 190.831 220.746 192.031 220.746C193.906 220.746 195.511 222.306 195.511 224.946C195.511 227.586 193.906 229.161 192.031 229.161C190.831 229.161 190.006 228.666 189.511 227.826V231.591H187.951V220.896ZM189.451 224.946C189.451 226.941 190.471 227.856 191.671 227.856C192.976 227.856 193.846 226.761 193.846 224.946C193.846 223.131 192.976 222.051 191.671 222.051C190.471 222.051 189.451 222.951 189.451 224.946ZM202.649 222.081V220.896H204.209V228.021C204.209 229.506 203.894 230.301 203.339 230.856C202.724 231.501 201.764 231.831 200.519 231.831C198.704 231.831 197.399 231.051 197.144 229.356H198.749C198.914 230.091 199.364 230.526 200.549 230.526C201.284 230.526 201.824 230.331 202.169 229.941C202.484 229.596 202.649 229.191 202.649 228.351V227.496C202.154 228.336 201.359 228.831 200.159 228.831C198.284 228.831 196.724 227.361 196.724 224.781C196.724 222.216 198.284 220.746 200.159 220.746C201.359 220.746 202.154 221.241 202.649 222.081ZM202.709 224.781C202.709 222.861 201.719 222.036 200.519 222.036C199.214 222.036 198.389 223.041 198.389 224.781C198.389 226.536 199.214 227.556 200.519 227.556C201.719 227.556 202.709 226.701 202.709 224.781ZM206.223 228.966V227.091H208.098V229.101L207.123 231.186H206.148L207.048 228.966H206.223ZM215.311 224.631V228.966H213.751V220.896H215.311V222.066C215.776 221.271 216.541 220.746 217.696 220.746C218.956 220.746 219.676 221.271 220.036 222.171C220.711 221.151 221.641 220.746 222.706 220.746C224.596 220.746 225.331 222.006 225.331 223.881V228.966H223.771V224.301C223.771 223.146 223.576 222.051 222.181 222.051C220.936 222.051 220.321 223.011 220.321 224.631V228.966H218.761V224.301C218.761 223.146 218.566 222.051 217.171 222.051C215.911 222.051 215.311 223.011 215.311 224.631ZM227.401 220.896H228.961V222.081C229.456 221.241 230.281 220.746 231.481 220.746C233.356 220.746 234.961 222.306 234.961 224.946C234.961 227.586 233.356 229.161 231.481 229.161C230.281 229.161 229.456 228.666 228.961 227.826V231.591H227.401V220.896ZM228.901 224.946C228.901 226.941 229.921 227.856 231.121 227.856C232.426 227.856 233.296 226.761 233.296 224.946C233.296 223.131 232.426 222.051 231.121 222.051C229.921 222.051 228.901 222.951 228.901 224.946ZM241.142 220.176L237.482 224.931H241.142V220.176ZM244.667 224.931V226.341H242.717V228.966H241.142V226.341H235.757V224.961L241.142 218.091H242.717V224.931H244.667ZM245.732 228.966V227.091H247.607V229.101L246.632 231.186H245.657L246.557 228.966H245.732ZM258.63 222.081V220.896H260.19V228.021C260.19 229.506 259.875 230.301 259.32 230.856C258.705 231.501 257.745 231.831 256.5 231.831C254.685 231.831 253.38 231.051 253.125 229.356H254.73C254.895 230.091 255.345 230.526 256.53 230.526C257.265 230.526 257.805 230.331 258.15 229.941C258.465 229.596 258.63 229.191 258.63 228.351V227.496C258.135 228.336 257.34 228.831 256.14 228.831C254.265 228.831 252.705 227.361 252.705 224.781C252.705 222.216 254.265 220.746 256.14 220.746C257.34 220.746 258.135 221.241 258.63 222.081ZM258.69 224.781C258.69 222.861 257.7 222.036 256.5 222.036C255.195 222.036 254.37 223.041 254.37 224.781C254.37 226.536 255.195 227.556 256.5 227.556C257.7 227.556 258.69 226.701 258.69 224.781ZM262.369 220.896H263.929V228.966H262.369V220.896ZM262.369 218.091H263.929V219.816H262.369V218.091ZM266.416 220.896V220.356C266.416 218.571 266.956 218.091 268.831 218.091H269.536V219.336H268.936C268.141 219.336 267.976 219.501 267.976 220.341V220.896H269.536V222.081H267.976V228.966H266.416V222.081H265.291V220.896H266.416Z" fill="#131314" fill-opacity="0.4"/>
</svg>
