<svg width="28" height="28" viewBox="0 0 28 28" fill="none" xmlns="http://www.w3.org/2000/svg">
<path d="M14 27C13.5105 27 13.1136 26.6032 13.1136 26.1136C13.1136 25.6241 13.5105 25.2273 14 25.2273C20.2007 25.2273 25.2273 20.2007 25.2273 14C25.2273 7.79935 20.2007 2.77273 14 2.77273C7.79935 2.77273 2.77273 7.79935 2.77273 14C2.77273 15.8668 3.22812 17.6659 4.0868 19.2758C4.31718 19.7077 4.15381 20.2446 3.72188 20.475C3.28996 20.7054 2.75305 20.542 2.52267 20.1101C1.52785 18.245 1 16.1596 1 14C1 6.8203 6.8203 1 14 1C21.1797 1 27 6.8203 27 14C27 21.1797 21.1797 27 14 27Z" fill="white" stroke="white" stroke-linecap="round" stroke-linejoin="round"/>
</svg>
