<svg width="50" height="50" viewBox="0 0 50 50" fill="none" xmlns="http://www.w3.org/2000/svg">
<path d="M0 15C0 6.71573 6.71573 0 15 0H35C43.2843 0 50 6.71573 50 15V35C50 43.2843 43.2843 50 35 50H15C6.71573 50 0 43.2843 0 35V15Z" fill="#131314" fill-opacity="0.04"/>
<path d="M25 35C30.5228 35 35 30.5228 35 25C35 19.4772 30.5228 15 25 15C19.4772 15 15 19.4772 15 25C15 30.5228 19.4772 35 25 35Z" stroke="#131314" stroke-width="2" stroke-linecap="round" stroke-linejoin="round"/>
<path d="M25 31C28.3137 31 31 28.3137 31 25C31 21.6863 28.3137 19 25 19C21.6863 19 19 21.6863 19 25C19 28.3137 21.6863 31 25 31Z" stroke="#131314" stroke-width="2" stroke-linecap="round" stroke-linejoin="round"/>
<path d="M25 27C26.1046 27 27 26.1046 27 25C27 23.8954 26.1046 23 25 23C23.8954 23 23 23.8954 23 25C23 26.1046 23.8954 27 25 27Z" stroke="#131314" stroke-width="2" stroke-linecap="round" stroke-linejoin="round"/>
</svg>
