<svg width="50" height="50" viewBox="0 0 50 50" fill="none" xmlns="http://www.w3.org/2000/svg">
<path d="M0 15C0 6.71573 6.71573 0 15 0H35C43.2843 0 50 6.71573 50 15V35C50 43.2843 43.2843 50 35 50H15C6.71573 50 0 43.2843 0 35V15Z" fill="#131314" fill-opacity="0.04"/>
<path d="M24.9169 14C29.8484 14 33.8337 18.081 33.8337 22.9169C33.8337 26.3058 31.642 30.2543 27.3724 34.9187C27.3062 34.991 27.2369 35.0604 27.1646 35.1266C25.8084 36.368 23.7026 36.2749 22.4613 34.9187C18.1917 30.2543 16 26.3058 16 22.9169C16 18.081 19.9853 14 24.9169 14ZM24.9169 15.7834C20.8962 15.7834 17.7834 19.1423 17.7834 22.9169C17.7834 25.7503 19.7812 29.3495 23.7768 33.7146C24.3531 34.3442 25.3308 34.3875 25.9604 33.8111C25.994 33.7804 26.0262 33.7482 26.0569 33.7146C30.0526 29.3495 32.0504 25.7503 32.0504 22.9169C32.0504 19.1423 28.9376 15.7834 24.9169 15.7834ZM24.9169 18.7557C27.2144 18.7557 29.0781 20.6194 29.0781 22.9169C29.0781 25.2144 27.2144 27.0781 24.9169 27.0781C22.6194 27.0781 20.7557 25.2144 20.7557 22.9169C20.7557 20.6194 22.6194 18.7557 24.9169 18.7557ZM24.9169 20.539C23.6043 20.539 22.539 21.6043 22.539 22.9169C22.539 24.2294 23.6043 25.2947 24.9169 25.2947C26.2294 25.2947 27.2947 24.2294 27.2947 22.9169C27.2947 21.6043 26.2294 20.539 24.9169 20.539Z" fill="#131314"/>
</svg>
