<svg width="50" height="50" viewBox="0 0 50 50" fill="none" xmlns="http://www.w3.org/2000/svg">
<path d="M0 15C0 6.71573 6.71573 0 15 0H35C43.2843 0 50 6.71573 50 15V35C50 43.2843 43.2843 50 35 50H15C6.71573 50 0 43.2843 0 35V15Z" fill="#131314" fill-opacity="0.04"/>
<path d="M29.414 34.4278C23.1569 34.6044 12.0785 23.513 17.4073 17.4878C17.4265 17.4693 18.245 16.7553 18.245 16.7553C18.7517 16.2654 19.4306 15.9942 20.1353 16.0001C20.8401 16.006 21.5143 16.2885 22.0128 16.7867L23.666 18.5674C24.1525 19.076 24.4215 19.7543 24.4159 20.4581C24.4103 21.1619 24.1305 21.8358 23.636 22.3367L23.3373 22.6392C24.2251 24.604 25.7955 26.1801 27.757 27.075L28.0718 26.7679C28.5835 26.28 29.2633 26.0079 29.9703 26.0079C30.6773 26.0079 31.3571 26.28 31.8688 26.7679L33.5872 28.3619C34.097 28.8584 34.3896 29.5364 34.4013 30.2479C34.413 30.9595 34.1427 31.6467 33.6494 32.1596C33.6494 32.1596 32.9353 32.9789 32.9169 32.9981C32.4564 33.4561 31.9098 33.8182 31.3085 34.0636C30.7073 34.309 30.0634 34.4328 29.414 34.4278ZM19.0098 19.1478C15.2781 23.7679 27.2203 35.0214 31.2607 31.3949C31.2607 31.3949 31.9701 30.5817 31.9893 30.5625C32.0266 30.5279 32.0563 30.4859 32.0766 30.4393C32.0969 30.3927 32.1074 30.3424 32.1074 30.2915C32.1074 30.2406 32.0969 30.1903 32.0766 30.1437C32.0563 30.097 32.0266 30.0551 31.9893 30.0204L30.2709 28.4279C30.0406 28.236 29.9116 28.2337 29.6966 28.3972L28.8251 29.2549C28.6677 29.4097 28.4692 29.516 28.2532 29.5612C28.0372 29.6064 27.8127 29.5886 27.6065 29.5098C26.0745 28.94 24.6828 28.0474 23.526 26.8926C22.3692 25.7377 21.4742 24.3476 20.9017 22.8166C20.8182 22.6087 20.797 22.3809 20.841 22.1612C20.8849 21.9415 20.9919 21.7394 21.149 21.5796L22.0005 20.7142C22.0393 20.68 22.0705 20.638 22.0921 20.591C22.1137 20.544 22.1252 20.493 22.1258 20.4413C22.1265 20.3895 22.1163 20.3382 22.0959 20.2907C22.0755 20.2431 22.0454 20.2004 22.0074 20.1652L20.3535 18.3846C20.2793 18.3254 20.1859 18.2958 20.0911 18.3015C19.9964 18.3072 19.9072 18.3477 19.8406 18.4153C19.8229 18.4345 19.0098 19.1478 19.0098 19.1478ZM34.1362 24.3945C34.4621 23.2674 34.4797 22.0735 34.1873 20.9372C33.8948 19.801 33.3029 18.764 32.4733 17.9343C31.6437 17.1046 30.6067 16.5126 29.4705 16.22C28.3343 15.9274 27.1404 15.945 26.0132 16.2707C25.8683 16.314 25.7333 16.3854 25.6159 16.4808C25.4986 16.5763 25.4011 16.6939 25.3292 16.827C25.2573 16.96 25.2123 17.106 25.1968 17.2564C25.1813 17.4069 25.1956 17.559 25.2389 17.7039C25.2821 17.8489 25.3535 17.9839 25.449 18.1012C25.5444 18.2186 25.662 18.316 25.7951 18.3879C25.9282 18.4598 26.0741 18.5048 26.2246 18.5203C26.375 18.5358 26.5271 18.5215 26.672 18.4783C27.4009 18.2699 28.1723 18.2603 28.9062 18.4504C29.64 18.6405 30.3097 19.0235 30.8457 19.5596C31.3817 20.0957 31.7645 20.7654 31.9546 21.4993C32.1446 22.2332 32.1349 23.0045 31.9264 23.7334C31.8832 23.8784 31.869 24.0305 31.8846 24.1809C31.9002 24.3314 31.9453 24.4774 32.0173 24.6104C32.0893 24.7435 32.1868 24.8611 32.3043 24.9564C32.4218 25.0518 32.5569 25.123 32.7019 25.1662C32.8088 25.1977 32.9198 25.2137 33.0313 25.2138C33.2792 25.2135 33.5204 25.1333 33.719 24.985C33.9177 24.8367 34.0632 24.6282 34.1339 24.3906L34.1362 24.3945ZM29.8471 24.4966C29.9541 24.3896 30.039 24.2626 30.0969 24.1229C30.1548 23.9831 30.1847 23.8332 30.1847 23.6819C30.1847 23.5306 30.1548 23.3808 30.0969 23.241C30.039 23.1012 29.9541 22.9742 29.8471 22.8673L29.0301 22.0495V20.9907C29.0301 20.6852 28.9087 20.3922 28.6927 20.1762C28.4767 19.9602 28.1838 19.8389 27.8783 19.8389C27.5729 19.8389 27.2799 19.9602 27.0639 20.1762C26.8479 20.3922 26.7266 20.6852 26.7266 20.9907V22.5263C26.7265 22.6776 26.7562 22.8274 26.8141 22.9672C26.8719 23.107 26.9567 23.234 27.0636 23.341L28.2154 24.4928C28.3224 24.5998 28.4494 24.6847 28.5892 24.7426C28.7289 24.8006 28.8788 24.8304 29.0301 24.8304C29.1814 24.8304 29.3312 24.8006 29.471 24.7426C29.6108 24.6847 29.7378 24.5998 29.8448 24.4928L29.8471 24.4966Z" fill="#131314"/>
</svg>
