<svg width="17" height="17" viewBox="0 0 17 17" fill="none" xmlns="http://www.w3.org/2000/svg">
<path fill-rule="evenodd" clip-rule="evenodd" d="M8.5 17C13.1944 17 17 13.1944 17 8.5C17 3.80558 13.1944 0 8.5 0C3.80558 0 0 3.80558 0 8.5C0 13.1944 3.80558 17 8.5 17ZM15.5 8.5C15.5 12.366 12.366 15.5 8.5 15.5C4.63401 15.5 1.5 12.366 1.5 8.5C1.5 4.63401 4.63401 1.5 8.5 1.5C12.366 1.5 15.5 4.63401 15.5 8.5ZM8.5 12.5C8.08579 12.5 7.75 12.1642 7.75 11.75V9.25H5.25C4.83579 9.25 4.5 8.91421 4.5 8.5C4.5 8.08579 4.83579 7.75 5.25 7.75H7.75V5.25C7.75 4.83579 8.08579 4.5 8.5 4.5C8.91421 4.5 9.25 4.83579 9.25 5.25V7.75H11.75C12.1642 7.75 12.5 8.08579 12.5 8.5C12.5 8.91421 12.1642 9.25 11.75 9.25H9.25V11.75C9.25 12.1642 8.91421 12.5 8.5 12.5Z" fill="#131314" fill-opacity="0.8"/>
</svg>
