<svg width="13" height="4" viewBox="0 0 13 4" fill="none" xmlns="http://www.w3.org/2000/svg">
<path d="M2.98407 1.63687C2.98407 0.875331 2.361 0.252254 1.59946 0.252254C0.837921 0.252254 0.214844 0.875331 0.214844 1.63687C0.214844 2.39841 0.837921 3.02148 1.59946 3.02148C2.361 3.02148 2.98407 2.39841 2.98407 1.63687ZM4.83023 1.63687C4.83023 2.39841 5.45331 3.02148 6.21484 3.02148C6.97638 3.02148 7.59946 2.39841 7.59946 1.63687C7.59946 0.875331 6.97638 0.252254 6.21484 0.252254C5.45331 0.252254 4.83023 0.875331 4.83023 1.63687ZM9.44561 1.63687C9.44561 2.39841 10.0687 3.02148 10.8302 3.02148C11.5918 3.02148 12.2148 2.39841 12.2148 1.63687C12.2148 0.875331 11.5918 0.252254 10.8302 0.252254C10.0687 0.252254 9.44561 0.875331 9.44561 1.63687Z" fill="white"/>
</svg>
