<svg width="503" height="42" viewBox="0 0 503 42" fill="none" xmlns="http://www.w3.org/2000/svg">
<path d="M0 16C0 10.3995 0 7.59921 1.08993 5.46009C2.04867 3.57847 3.57847 2.04867 5.46009 1.08993C7.59921 0 10.3995 0 16 0H487C492.601 0 495.401 0 497.54 1.08993C499.422 2.04867 500.951 3.57847 501.91 5.46009C503 7.59921 503 10.3995 503 16V26C503 31.6005 503 34.4008 501.91 36.5399C500.951 38.4215 499.422 39.9513 497.54 40.9101C495.401 42 492.601 42 487 42H16C10.3995 42 7.59921 42 5.46009 40.9101C3.57847 39.9513 2.04867 38.4215 1.08993 36.5399C0 34.4008 0 31.6005 0 26V16Z" fill="#131314" fill-opacity="0.04"/>
<path d="M18.5001 14C21.5377 14 24.0001 16.4626 24.0001 19.5003C24.0001 20.7487 23.5842 21.8999 22.8835 22.823L26.7791 26.7233C27.0718 27.0164 27.0715 27.4913 26.7785 27.784C26.4854 28.0767 26.0105 28.0764 25.7178 27.7834L21.8227 23.8839C20.8996 24.5847 19.7484 25.0006 18.5001 25.0006C15.4625 25.0006 13 22.538 13 19.5003C13 16.4626 15.4625 14 18.5001 14ZM18.5001 15.5C16.2909 15.5 14.5 17.291 14.5 19.5003C14.5 21.7096 16.2909 23.5006 18.5001 23.5006C20.7092 23.5006 22.5001 21.7096 22.5001 19.5003C22.5001 17.291 20.7092 15.5 18.5001 15.5Z" fill="#131314" fill-opacity="0.4"/>
<path d="M46.0078 14.625V26H44.5078V15.8594H38.8984V26H37.3906V14.625H46.0078ZM48.2406 21.8672V21.6875C48.2406 21.0781 48.3292 20.513 48.5063 19.9922C48.6833 19.4661 48.9385 19.0104 49.2719 18.625C49.6052 18.2344 50.0089 17.9323 50.4828 17.7188C50.9568 17.5 51.488 17.3906 52.0766 17.3906C52.6703 17.3906 53.2042 17.5 53.6781 17.7188C54.1573 17.9323 54.5635 18.2344 54.8969 18.625C55.2354 19.0104 55.4932 19.4661 55.6703 19.9922C55.8474 20.513 55.9359 21.0781 55.9359 21.6875V21.8672C55.9359 22.4766 55.8474 23.0417 55.6703 23.5625C55.4932 24.0833 55.2354 24.5391 54.8969 24.9297C54.5635 25.3151 54.1599 25.6172 53.6859 25.8359C53.2172 26.0495 52.6859 26.1562 52.0922 26.1562C51.4984 26.1562 50.9646 26.0495 50.4906 25.8359C50.0167 25.6172 49.6104 25.3151 49.2719 24.9297C48.9385 24.5391 48.6833 24.0833 48.5063 23.5625C48.3292 23.0417 48.2406 22.4766 48.2406 21.8672ZM49.6859 21.6875V21.8672C49.6859 22.2891 49.7354 22.6875 49.8344 23.0625C49.9333 23.4323 50.0818 23.7604 50.2797 24.0469C50.4828 24.3333 50.7354 24.5599 51.0375 24.7266C51.3396 24.888 51.6911 24.9688 52.0922 24.9688C52.488 24.9688 52.8344 24.888 53.1313 24.7266C53.4333 24.5599 53.6833 24.3333 53.8813 24.0469C54.0792 23.7604 54.2276 23.4323 54.3266 23.0625C54.4307 22.6875 54.4828 22.2891 54.4828 21.8672V21.6875C54.4828 21.2708 54.4307 20.8776 54.3266 20.5078C54.2276 20.1328 54.0766 19.8021 53.8734 19.5156C53.6755 19.224 53.4255 18.9948 53.1234 18.8281C52.8266 18.6615 52.4776 18.5781 52.0766 18.5781C51.6807 18.5781 51.3318 18.6615 51.0297 18.8281C50.7328 18.9948 50.4828 19.224 50.2797 19.5156C50.0818 19.8021 49.9333 20.1328 49.8344 20.5078C49.7354 20.8776 49.6859 21.2708 49.6859 21.6875ZM59.4109 23.7109L63.3094 17.5469H64.7625V26H63.3094V19.8359L59.4109 26H57.9734V17.5469H59.4109V23.7109ZM70.5656 24.9688C70.9094 24.9688 71.2271 24.8984 71.5187 24.7578C71.8104 24.6172 72.05 24.4245 72.2375 24.1797C72.425 23.9297 72.5318 23.6458 72.5578 23.3281H73.9328C73.9068 23.8281 73.7375 24.2943 73.425 24.7266C73.1177 25.1536 72.7141 25.5 72.2141 25.7656C71.7141 26.026 71.1646 26.1562 70.5656 26.1562C69.9302 26.1562 69.3755 26.0443 68.9016 25.8203C68.4328 25.5964 68.0422 25.2891 67.7297 24.8984C67.4224 24.5078 67.1906 24.0599 67.0344 23.5547C66.8833 23.0443 66.8078 22.5052 66.8078 21.9375V21.6094C66.8078 21.0417 66.8833 20.5052 67.0344 20C67.1906 19.4896 67.4224 19.0391 67.7297 18.6484C68.0422 18.2578 68.4328 17.9505 68.9016 17.7266C69.3755 17.5026 69.9302 17.3906 70.5656 17.3906C71.2271 17.3906 71.8052 17.526 72.3 17.7969C72.7948 18.0625 73.1828 18.4271 73.4641 18.8906C73.7505 19.349 73.9068 19.8698 73.9328 20.4531H72.5578C72.5318 20.1042 72.4328 19.7891 72.2609 19.5078C72.0943 19.2266 71.8651 19.0026 71.5734 18.8359C71.287 18.6641 70.951 18.5781 70.5656 18.5781C70.1229 18.5781 69.7505 18.6667 69.4484 18.8438C69.1516 19.0156 68.9146 19.25 68.7375 19.5469C68.5656 19.8385 68.4406 20.1641 68.3625 20.5234C68.2896 20.8776 68.2531 21.2396 68.2531 21.6094V21.9375C68.2531 22.3073 68.2896 22.6719 68.3625 23.0312C68.4354 23.3906 68.5578 23.7161 68.7297 24.0078C68.9068 24.2995 69.1437 24.5339 69.4406 24.7109C69.7427 24.8828 70.1177 24.9688 70.5656 24.9688ZM77.2281 17.5469V26H75.7828V17.5469H77.2281ZM82.775 17.5469L78.7672 22.3906H76.7438L76.525 21.125H78.1813L81.0172 17.5469H82.775ZM81.2203 26L78.1109 22.1719L79.0406 21.125L83.0563 26H81.2203Z" fill="#131314" fill-opacity="0.4"/>
<path fill-rule="evenodd" clip-rule="evenodd" d="M478.103 15.9C478.103 13.1938 480.297 11 483.003 11C485.709 11 487.903 13.1938 487.903 15.9V20.1C487.903 22.8062 485.709 25 483.003 25C480.297 25 478.103 22.8062 478.103 20.1V15.9ZM483.003 12.8C481.291 12.8 479.903 14.1879 479.903 15.9V20.1C479.903 21.8121 481.291 23.2 483.003 23.2C484.715 23.2 486.103 21.8121 486.103 20.1V15.9C486.103 14.1879 484.715 12.8 483.003 12.8Z" fill="#131314" fill-opacity="0.4"/>
<path d="M490.683 24.3498C490.931 23.9193 490.784 23.3689 490.353 23.1205C489.923 22.872 489.372 23.0197 489.124 23.4502C487.897 25.5764 485.613 27 483.003 27C480.393 27 478.11 25.5764 476.883 23.4502C476.634 23.0197 476.084 22.872 475.653 23.1205C475.223 23.3689 475.075 23.9193 475.324 24.3498C476.715 26.7611 479.202 28.4607 482.103 28.7547V31.1C482.103 31.5971 482.506 32 483.003 32C483.5 32 483.903 31.5971 483.903 31.1V28.7547C486.805 28.4607 489.291 26.7611 490.683 24.3498Z" fill="#131314" fill-opacity="0.4"/>
</svg>
