<svg width="50" height="50" viewBox="0 0 50 50" fill="none" xmlns="http://www.w3.org/2000/svg">
<path d="M0 15C0 6.71573 6.71573 0 15 0H35C43.2843 0 50 6.71573 50 15V35C50 43.2843 43.2843 50 35 50H15C6.71573 50 0 43.2843 0 35V15Z" fill="#131314" fill-opacity="0.04"/>
<path d="M15 21.6667H35M21.6667 21.6667L21.6667 35M20.3333 15H29.6667C31.5335 15 32.4669 15 33.18 15.3633C33.8072 15.6829 34.3171 16.1928 34.6367 16.82C35 17.5331 35 18.4665 35 20.3333V29.6667C35 31.5335 35 32.4669 34.6367 33.18C34.3171 33.8072 33.8072 34.3171 33.18 34.6367C32.4669 35 31.5335 35 29.6667 35H20.3333C18.4665 35 17.5331 35 16.82 34.6367C16.1928 34.3171 15.6829 33.8072 15.3633 33.18C15 32.4669 15 31.5335 15 29.6667V20.3333C15 18.4665 15 17.5331 15.3633 16.82C15.6829 16.1928 16.1928 15.6829 16.82 15.3633C17.5331 15 18.4665 15 20.3333 15Z" stroke="#131314" stroke-width="2" stroke-linecap="round" stroke-linejoin="round"/>
</svg>
