<svg width="50" height="50" viewBox="0 0 50 50" fill="none" xmlns="http://www.w3.org/2000/svg">
<path d="M0 15C0 6.71573 6.71573 0 15 0H35C43.2843 0 50 6.71573 50 15V35C50 43.2843 43.2843 50 35 50H15C6.71573 50 0 43.2843 0 35V15Z" fill="#131314" fill-opacity="0.04"/>
<path d="M35.9994 28.6669V33.2501C35.9994 33.9794 35.7097 34.6789 35.194 35.1946C34.6783 35.7103 33.9788 36 33.2495 36H28.6663C27.3803 35.9987 26.1173 35.6592 25.004 35.0157C23.8906 34.3721 22.9661 33.4471 22.3231 32.3334C23.0141 32.3285 23.7028 32.2523 24.3782 32.1061C24.8926 32.7493 25.5451 33.2684 26.2874 33.6251C27.0297 33.9818 27.8427 34.1669 28.6663 34.1667H33.2495C33.4926 34.1667 33.7258 34.0701 33.8977 33.8982C34.0696 33.7263 34.1661 33.4932 34.1661 33.2501V28.6669C34.1659 27.843 33.9803 27.0298 33.6229 26.2875C33.2656 25.5452 32.7457 24.8928 32.1019 24.3788C32.2493 23.7035 32.3267 23.0148 32.3329 22.3237C33.4465 22.9667 34.3715 23.8912 35.0151 25.0045C35.6586 26.1179 35.9981 27.3809 35.9994 28.6669ZM30.4785 22.8471C30.5642 21.6661 30.3947 20.4805 29.9815 19.3709C29.5683 18.2613 28.9211 17.2536 28.0838 16.4163C27.2466 15.579 26.2389 14.9318 25.1292 14.5186C24.0196 14.1054 22.834 13.9359 21.653 14.0217C19.5603 14.2607 17.6271 15.2565 16.2175 16.8218C14.808 18.387 14.0193 20.4136 14 22.5198V27.1397C14 29.4607 15.3814 30.5001 16.7499 30.5001H21.9748C24.082 30.482 26.1098 29.6939 27.6761 28.2842C29.2425 26.8745 30.2392 24.9407 30.4785 22.8471ZM26.7872 17.7139C27.4379 18.3661 27.941 19.1505 28.2623 20.0139C28.5837 20.8774 28.7158 21.7998 28.6498 22.7188C28.4541 24.3538 27.6676 25.8608 26.4382 26.9563C25.2089 28.0518 23.6214 28.6602 21.9748 28.6669H16.7499C15.8993 28.6669 15.8333 27.4981 15.8333 27.1397V22.5198C15.8409 20.8739 16.4499 19.2875 17.5455 18.0592C18.6411 16.8308 20.1479 16.0453 21.7823 15.8504C21.9345 15.8394 22.0866 15.8339 22.2388 15.8339C23.0833 15.8331 23.9196 15.9987 24.7 16.3213C25.4805 16.6439 26.1897 17.1171 26.7872 17.7139Z" fill="#131314"/>
</svg>
