<svg width="50" height="50" viewBox="0 0 50 50" fill="none" xmlns="http://www.w3.org/2000/svg">
<path d="M0 15C0 6.71573 6.71573 0 15 0H35C43.2843 0 50 6.71573 50 15V35C50 43.2843 43.2843 50 35 50H15C6.71573 50 0 43.2843 0 35V15Z" fill="#131314" fill-opacity="0.04"/>
<path fill-rule="evenodd" clip-rule="evenodd" d="M29.2 16.5998H20.8C20.0268 16.5998 19.4 17.2266 19.4 17.9998V31.9998C19.4 32.773 20.0268 33.3998 20.8 33.3998H29.2C29.9732 33.3998 30.6 32.773 30.6 31.9998V17.9998C30.6 17.2266 29.9732 16.5998 29.2 16.5998ZM20.8 13.7998C18.4804 13.7998 16.6 15.6802 16.6 17.9998V31.9998C16.6 34.3194 18.4804 36.1998 20.8 36.1998H29.2C31.5196 36.1998 33.4 34.3194 33.4 31.9998V17.9998C33.4 15.6802 31.5196 13.7998 29.2 13.7998H20.8Z" fill="black"/>
<path d="M11 16.5998C11 15.8266 11.6268 15.1998 12.4 15.1998C13.1732 15.1998 13.8 15.8266 13.8 16.5998V33.3998C13.8 34.173 13.1732 34.7998 12.4 34.7998C11.6268 34.7998 11 34.173 11 33.3998V16.5998Z" fill="black"/>
<path d="M36.2 16.5998C36.2 15.8266 36.8268 15.1998 37.6 15.1998C38.3732 15.1998 39 15.8266 39 16.5998V33.3998C39 34.173 38.3732 34.7998 37.6 34.7998C36.8268 34.7998 36.2 34.173 36.2 33.3998V16.5998Z" fill="black"/>
</svg>
