<svg width="50" height="50" viewBox="0 0 50 50" fill="none" xmlns="http://www.w3.org/2000/svg">
<path d="M0 15C0 6.71573 6.71573 0 15 0H35C43.2843 0 50 6.71573 50 15V35C50 43.2843 43.2843 50 35 50H15C6.71573 50 0 43.2843 0 35V15Z" fill="#131314" fill-opacity="0.04"/>
<path d="M19.8285 19.0571L21.8857 19.0571V31.9714C21.8857 32.5395 21.4252 33 20.8571 33C20.2891 33 19.8285 32.5395 19.8285 31.9714V19.0571Z" fill="#131314"/>
<path d="M14 18.0286C14 17.4605 14.4605 17 15.0286 17H26.6857C27.2538 17 27.7143 17.4605 27.7143 18.0286C27.7143 18.5966 27.2538 19.0571 26.6857 19.0571H15.0286C14.4605 19.0571 14 18.5966 14 18.0286Z" fill="#131314"/>
<path d="M25.4286 22.6C25.4286 22.0319 25.8891 21.5714 26.4571 21.5714H35.8286C36.3966 21.5714 36.8571 22.0319 36.8571 22.6C36.8571 23.1681 36.3966 23.6286 35.8286 23.6286H26.4571C25.8891 23.6286 25.4286 23.1681 25.4286 22.6Z" fill="#131314"/>
<path d="M30.1143 23.6238H32.1714V31.9714C32.1714 32.5395 31.7109 33 31.1429 33C30.5748 33 30.1143 32.5395 30.1143 31.9714V23.6238Z" fill="#131314"/>
</svg>
