<svg width="50" height="50" viewBox="0 0 50 50" fill="none" xmlns="http://www.w3.org/2000/svg">
<path d="M0 15C0 6.71573 6.71573 0 15 0H35C43.2843 0 50 6.71573 50 15V35C50 43.2843 43.2843 50 35 50H15C6.71573 50 0 43.2843 0 35V15Z" fill="#131314" fill-opacity="0.04"/>
<path fill-rule="evenodd" clip-rule="evenodd" d="M30.1205 29.3225C30.0789 29.772 29.9996 30.1114 29.8488 30.4075C29.5691 30.9563 29.1229 31.4025 28.5741 31.6821C27.9502 32 27.1335 32 25.5 32H19.6667C18.0332 32 17.2164 32 16.5925 31.6821C16.0437 31.4025 15.5975 30.9563 15.3179 30.4075C15 29.7836 15 28.9668 15 27.3333V22.6667C15 21.0332 15 20.2164 15.3179 19.5925C15.5975 19.0437 16.0437 18.5975 16.5925 18.3179C17.2164 18 18.0332 18 19.6667 18H25.5C27.1335 18 27.9502 18 28.5741 18.3179C29.1229 18.5975 29.5691 19.0437 29.8488 19.5925C29.9996 19.8885 30.0789 20.228 30.1205 20.6774L31.6363 19.8113C33.5807 18.7002 36 20.1042 36 22.3437V27.6563C36 29.8957 33.5807 31.2997 31.6363 30.1886L30.1205 29.3225ZM19.6667 19.75H25.5C26.3456 19.75 26.8746 19.7514 27.2732 19.7839C27.6513 19.8148 27.7555 19.8649 27.7797 19.8772C27.9992 19.989 28.1777 20.1675 28.2895 20.387C28.3018 20.4111 28.3518 20.5154 28.3827 20.8935C28.4153 21.2921 28.4167 21.821 28.4167 22.6667V27.3333C28.4167 28.1789 28.4153 28.7079 28.3827 29.1065C28.3518 29.4846 28.3018 29.5889 28.2895 29.613C28.1777 29.8325 27.9992 30.011 27.7797 30.1228C27.7555 30.1351 27.6513 30.1852 27.2732 30.2161C26.8746 30.2486 26.3456 30.25 25.5 30.25H19.6667C18.821 30.25 18.2921 30.2486 17.8935 30.2161C17.5154 30.1852 17.4111 30.1351 17.387 30.1228C17.1675 30.011 16.989 29.8325 16.8772 29.613C16.8649 29.5889 16.8148 29.4846 16.7839 29.1065C16.7514 28.7079 16.75 28.179 16.75 27.3333V22.6667C16.75 21.821 16.7514 21.2921 16.7839 20.8935C16.8148 20.5154 16.8649 20.4111 16.8772 20.387C16.989 20.1675 17.1675 19.989 17.387 19.8772C17.4111 19.8649 17.5154 19.8148 17.8935 19.7839C18.2921 19.7514 18.821 19.75 19.6667 19.75ZM30.1667 27.3333L32.5045 28.6692C33.2823 29.1137 34.25 28.5521 34.25 27.6563V22.3437C34.25 21.4479 33.2823 20.8863 32.5045 21.3307L30.1667 22.6666M30.1667 22.6666V27.3333V22.6666Z" fill="#131314"/>
</svg>
