<svg width="24" height="24" viewBox="0 0 24 24" fill="none" xmlns="http://www.w3.org/2000/svg">
<path fill-rule="evenodd" clip-rule="evenodd" d="M7.1033 6.9C7.1033 4.1938 9.29711 2 12.0033 2C14.7095 2 16.9033 4.19381 16.9033 6.9V11.1C16.9033 13.8062 14.7095 16 12.0033 16C9.29711 16 7.1033 13.8062 7.1033 11.1V6.9ZM12.0033 3.8C10.2912 3.8 8.9033 5.18791 8.9033 6.9V11.1C8.9033 12.8121 10.2912 14.2 12.0033 14.2C13.7154 14.2 15.1033 12.8121 15.1033 11.1V6.9C15.1033 5.18792 13.7154 3.8 12.0033 3.8Z" fill="#131314" fill-opacity="0.4"/>
<path d="M19.6828 15.3498C19.9312 14.9193 19.7836 14.3689 19.3531 14.1205C18.9226 13.872 18.3722 14.0197 18.1238 14.4502C16.8968 16.5764 14.6134 18 12.0033 18C9.39315 18 7.10977 16.5764 5.8828 14.4502C5.63436 14.0197 5.08397 13.872 4.65345 14.1205C4.22293 14.3689 4.07532 14.9193 4.32375 15.3498C5.71519 17.7611 8.20168 19.4607 11.1033 19.7547V22.1C11.1033 22.5971 11.5062 23 12.0033 23C12.5003 23 12.9033 22.5971 12.9033 22.1V19.7547C15.8049 19.4607 18.2914 17.7611 19.6828 15.3498Z" fill="#131314" fill-opacity="0.4"/>
</svg>
