<svg width="50" height="50" viewBox="0 0 50 50" fill="none" xmlns="http://www.w3.org/2000/svg">
<path d="M0 15C0 6.71573 6.71573 0 15 0H35C43.2843 0 50 6.71573 50 15V35C50 43.2843 43.2843 50 35 50H15C6.71573 50 0 43.2843 0 35V15Z" fill="#131314" fill-opacity="0.04"/>
<path fill-rule="evenodd" clip-rule="evenodd" d="M22.2199 33.7089C22.5825 34.3595 22.9458 34.9104 23.2718 35.3585C19.8333 34.789 16.9588 32.5489 15.5104 29.5H20.5523C20.9785 31.1851 21.5985 32.5941 22.2199 33.7089ZM22.1041 29.5C22.4882 30.8816 23.0097 32.045 23.5301 32.9786C24.0369 33.8879 24.5422 34.5783 24.917 35.0375C24.9455 35.0724 24.9731 35.1059 25 35.1381C25.0269 35.1059 25.0545 35.0724 25.083 35.0375C25.4578 34.5783 25.9631 33.8879 26.4699 32.9786C26.9903 32.045 27.5118 30.8816 27.8959 29.5H22.1041ZM28.2374 28H21.7626C21.5977 27.0771 21.5 26.0763 21.5 25C21.5 23.9237 21.5977 22.9229 21.7626 22H28.2374C28.4023 22.9229 28.5 23.9237 28.5 25C28.5 26.0763 28.4023 27.0771 28.2374 28ZM29.4477 29.5C29.0215 31.1851 28.4015 32.5941 27.7801 33.7089C27.4175 34.3595 27.0542 34.9104 26.7282 35.3585C30.1667 34.789 33.0412 32.5489 34.4896 29.5H29.4477ZM35.0652 28H29.7592C29.9114 27.0687 30 26.0679 30 25C30 23.9321 29.9114 22.9313 29.7592 22H35.0652C35.3481 22.9506 35.5 23.9575 35.5 25C35.5 26.0425 35.3481 27.0494 35.0652 28ZM20.2408 28H14.9348C14.6519 27.0494 14.5 26.0425 14.5 25C14.5 23.9575 14.6519 22.9506 14.9348 22H20.2408C20.0886 22.9313 20 23.9321 20 25C20 26.0679 20.0886 27.0687 20.2408 28ZM20.5523 20.5H15.5104C16.9588 17.4511 19.8333 15.211 23.2718 14.6415C22.9458 15.0896 22.5825 15.6405 22.2199 16.2911C21.5985 17.4059 20.9785 18.8149 20.5523 20.5ZM23.5301 17.0214C23.0097 17.955 22.4882 19.1184 22.1041 20.5H27.8959C27.5118 19.1184 26.9903 17.955 26.4699 17.0214C25.9631 16.1121 25.4578 15.4217 25.083 14.9624C25.0545 14.9276 25.0269 14.8941 25 14.8619C24.9731 14.8941 24.9455 14.9276 24.917 14.9624C24.5422 15.4217 24.0369 16.1121 23.5301 17.0214ZM29.4477 20.5H34.4896C33.0412 17.4511 30.1667 15.211 26.7282 14.6415C27.0542 15.0896 27.4175 15.6405 27.7801 16.2911C28.4015 17.4059 29.0215 18.8149 29.4477 20.5ZM25 37C31.6274 37 37 31.6274 37 25C37 18.3726 31.6274 13 25 13C18.3726 13 13 18.3726 13 25C13 31.6274 18.3726 37 25 37Z" fill="#131314"/>
</svg>
